<svg id="Capa_1" data-name="Capa 1" xmlns="http://www.w3.org/2000/svg" viewBox="0 0 1443.38 280.8"><defs><style>.cls-1{fill:#e1d28a;}</style></defs><path d="M61.87,108a.76.76,0,0,0-.5.12l-.37.12c-.25,0-.37-.08-.37-.24a1.11,1.11,0,0,1-.63-.75A35.78,35.78,0,0,1,54.4,106l-4.35-1.24h-.63a1.73,1.73,0,0,1-1-.25,5.88,5.88,0,0,1-1.87-.25,19.17,19.17,0,0,1-3.24-.87c-1.49-.5-2.57-.87-3.23-1.12-1.33-.42-3.24-1.12-5.73-2.12a24.48,24.48,0,0,0-2.61-1l-2.86-1.74a2,2,0,0,1-1-1.5A12.65,12.65,0,0,1,29,91c.25-.58.6-1.28,1.06-2.11A25.26,25.26,0,0,0,31.38,86a9.51,9.51,0,0,1,1.36-2.24c2-3.31,3.07-5.14,3.24-5.47a7.48,7.48,0,0,0,.5-2.49,5.67,5.67,0,0,0-2-3.86,5.29,5.29,0,0,1-1.87-3.61c-.42,0-.62,0-.62.12h-.38a.71.71,0,0,1-.24-.5,96.92,96.92,0,0,1-8.1-12.07,149.27,149.27,0,0,1-8.46-14.94,26.86,26.86,0,0,1-2.36-5.35,52,52,0,0,1-2.74-6.85,20.32,20.32,0,0,1-1.37-5c0-.83.91-1.91,2.74-3.24A21.84,21.84,0,0,1,13.7,19c1-.5,1.74-.88,2.24-1.12s2.16-.54,5.23-1.37l1.74-.63A1.88,1.88,0,0,1,24,15.52,8.87,8.87,0,0,0,26.4,15a39.71,39.71,0,0,0,4.23-1l4.48-1c2.49-.83,3.94-1.28,4.36-1.37l.24-.12h.63c1.74,0,2.9.41,3.48,1.24a24.39,24.39,0,0,1,2.49,3.49A7.23,7.23,0,0,0,47.25,18a10.16,10.16,0,0,0,.93,1.25l1,1.36.88,1a12.83,12.83,0,0,1,1,1.49c.33.59.71,1.21,1.12,1.87a88.41,88.41,0,0,0,5,8.09c.75,1.08,1.37,1.62,1.87,1.62.25,0,.66-.45,1.24-1.37q1.13-1.74,4.11-8,1.62-4,3.86-9.08a20.94,20.94,0,0,0,1.24-2.74,6.43,6.43,0,0,1,1.12-2.86,2.43,2.43,0,0,1,2.24-1,45.33,45.33,0,0,1,10.46,1.62,70.32,70.32,0,0,1,12.2,4.85q6,3.24,8.09,6A12.42,12.42,0,0,1,102,28.34L90.5,53.61,79.3,79l-.5.13c-.08,0-.21.08-.37.25q-8.22,16.05-15.07,28.87c-.16.33-.66.5-1.49.5Z"/><path d="M148,99.79a10.63,10.63,0,0,0-2.73-.25,42,42,0,0,1-11.7-2.11h-.88a4.19,4.19,0,0,1-1.86-.5,2.51,2.51,0,0,0-.63-.44,5.83,5.83,0,0,1-.87-.56l-2.61-1.49a21.64,21.64,0,0,1-6.6-5.91,33.57,33.57,0,0,1-4.6-8.41,46.6,46.6,0,0,1,.62-36.22,39,39,0,0,1,11.33-15.19,27.37,27.37,0,0,1,17.42-6.22,33.3,33.3,0,0,1,4.61.25c0-.16.12-.25.37-.25h.38q8.7,0,15.55.62a32.42,32.42,0,0,1,10.83,3.61q10,6.6,14.32,14.44,4.61,8.72,4.6,20.54A45.71,45.71,0,0,1,190,83.86l-1.24,2c-.34.5-.54.75-.63.75l-.37.62-.87.5q-5.35,8-16.18,10.82-7.23,1.5-19.92,1.5A20.13,20.13,0,0,1,148,99.79Zm6.6-10.46q1.5-2.23,2.49-8.71c.08-.74.29-2.41.62-5s.54-5,.62-7.22c.34-5.64.5-9.13.5-10.45V54.11a68.41,68.41,0,0,0-.37-7.72A30.31,30.31,0,0,0,157,38.3c-.75-1-1.33-1.49-1.75-1.49-.83,0-1.61.62-2.36,1.86s-1.33,3.53-1.74,6.85L148.5,65.44v4.1q.38,5.24.38,6.85l.24,3,.38,4a5.37,5.37,0,0,0,.25,1.74l1.37,4.61a1.12,1.12,0,0,0,.68.75,2.7,2.7,0,0,0,1.06.24A1.92,1.92,0,0,0,154.6,89.33Z"/><path d="M224.55,98.54a23.53,23.53,0,0,1-5.22-1.74A13,13,0,0,1,215,93.32q-4-5-5.35-13.07a79.06,79.06,0,0,1-.75-14.44V60.33a9.72,9.72,0,0,1,.12-1.74v-6l.38-.88a1.8,1.8,0,0,1,.06-.37,4.25,4.25,0,0,0,.06-.87c.25-3,.38-5.39.38-7.22l.25-4.61q.12-3.11.12-7.22a14,14,0,0,0-.12-2.24,14.67,14.67,0,0,1-.25-2.36c0-1.25,1.28-1.87,3.85-1.87h1.75a5.1,5.1,0,0,0,2-.25l15.18.25c.25.25.42.37.5.37l1-.37q6.47,0,8.34,1.25a4.85,4.85,0,0,1,1.8,2.61,15.77,15.77,0,0,1,.56,4.73c0,1.33.08,3.15.25,5.48a42,42,0,0,1,.25,5.47v1.25q-.26,3.61-.5,11.82l-.12,6v5.35a24.79,24.79,0,0,0-.25,4v3.74a19.27,19.27,0,0,0,.5,4.85c.41.67.78,1,1.12,1a31.63,31.63,0,0,0,5.6-1.87l3-1.49c.82-.33,1.24-.67,1.24-1V37.18a30.52,30.52,0,0,1-.37-4.11,9.49,9.49,0,0,1-.13-1.86V28.09A2.94,2.94,0,0,1,256,26c.17-.25.58-.38,1.25-.38a.87.87,0,0,1,.5.19.57.57,0,0,1,.25.44v.24a23.78,23.78,0,0,1,5.35-.87,67.83,67.83,0,0,1,7.47-.37h7.47l13.07.37a.78.78,0,0,1,.43.13c.13.08.19.17.19.25s.12.08.12.25v.62c-.08,0-.12.12-.12.37l.62-.12a.39.39,0,0,1,.37-.25c.25,0,.38.21.38.62q0,21.78-.19,36.16T292.14,92.7a3.7,3.7,0,0,1-1,1.86c-.34.42-.63.75-.87,1a.85.85,0,0,1-.38.37,1.56,1.56,0,0,0-.37.25,2.57,2.57,0,0,0-.87-.31,5.13,5.13,0,0,0-1.25-.19l-.37.25a.71.71,0,0,1-.5.25,100.82,100.82,0,0,1-15.68.87h-5.48a26.32,26.32,0,0,1-5.48-.5A7.35,7.35,0,0,1,258,93.44a4,4,0,0,0-.5-1.49c-.17-.42-.37-.62-.62-.62a6.84,6.84,0,0,0-3.12,1.37,5.81,5.81,0,0,1-.68.56,5.84,5.84,0,0,0-.81.68,7.44,7.44,0,0,0-1.37,1.24,26.34,26.34,0,0,1-8,2.74,24.67,24.67,0,0,1-5.73.75q-2.87,0-4.23.12A44.18,44.18,0,0,1,224.55,98.54Z"/><path d="M361.47,96.8q-5.36,0-8.21-.12l-10.21-.13a3.43,3.43,0,0,1-3.11-3.11V54.11l-.13-10.21q0-5.1.25-12.82c0-1.08.13-3.86.37-8.34V19.88a10.2,10.2,0,0,1,1.37-5.6,2.12,2.12,0,0,1,2-1.12q6.09,0,13.31.25a25.83,25.83,0,0,0,2.87.12q4.11,0,6.1.12h9.64a9.28,9.28,0,0,1,3.8.63q2.24,1.24,2.24,5.72l-.12,1a18.2,18.2,0,0,1-.25,1.87A15.63,15.63,0,0,0,381,25.6a20.8,20.8,0,0,0,.38,3.49,16.43,16.43,0,0,1,.25,2l.12.75V66.56c0,.66.37,1.07,1.12,1.24a6.7,6.7,0,0,0,1.62.12h9.08q3.38-.12,10.21-.12a3.16,3.16,0,0,1,2.24.81,2.32,2.32,0,0,1,.87,1.68v24a1.85,1.85,0,0,1-1,1.62,8.07,8.07,0,0,1-2.62.62,24.79,24.79,0,0,1-5.1.38H380.14Q367.31,96.93,361.47,96.8Z"/><path d="M434,98.54a23.79,23.79,0,0,1-5.23-1.74,13,13,0,0,1-4.36-3.48,28.09,28.09,0,0,1-5.35-13.07,80,80,0,0,1-.74-14.44V60.33a9.72,9.72,0,0,1,.12-1.74v-6l.37-.88a1.41,1.41,0,0,1,.07-.37,4.25,4.25,0,0,0,.06-.87c.25-3,.37-5.39.37-7.22l.25-4.61q.12-3.11.12-7.22a14,14,0,0,0-.12-2.24,14.67,14.67,0,0,1-.25-2.36c0-1.25,1.29-1.87,3.86-1.87H425a5.06,5.06,0,0,0,2-.25l15.19.25c.25.25.41.37.5.37l1-.37q6.48,0,8.34,1.25a4.92,4.92,0,0,1,1.81,2.61,16.11,16.11,0,0,1,.56,4.73c0,1.33.08,3.15.25,5.48a43.87,43.87,0,0,1,.25,5.47v1.25q-.25,3.61-.5,11.82l-.13,6v5.35a26,26,0,0,0-.25,4v3.74a19.75,19.75,0,0,0,.5,4.85c.42.67.79,1,1.12,1a31.08,31.08,0,0,0,5.6-1.87l3-1.49c.83-.33,1.25-.67,1.25-1V37.18a30.84,30.84,0,0,1-.38-4.11,10.56,10.56,0,0,1-.12-1.86V28.09a2.89,2.89,0,0,1,.62-2.11c.17-.25.58-.38,1.25-.38a.84.84,0,0,1,.49.19.54.54,0,0,1,.25.44v.24a23.9,23.9,0,0,1,5.35-.87,68,68,0,0,1,7.47-.37h7.47l13.07.37a.81.81,0,0,1,.44.13.33.33,0,0,1,.18.25c.08,0,.13.08.13.25v.62c-.09,0-.13.12-.13.37l.63-.12a.38.38,0,0,1,.37-.25c.25,0,.37.21.37.62q0,21.78-.18,36.16T501.63,92.7a3.74,3.74,0,0,1-1,1.86,11.32,11.32,0,0,1-.87,1,.83.83,0,0,1-.37.37,1.92,1.92,0,0,0-.38.25,2.47,2.47,0,0,0-.87-.31,5.06,5.06,0,0,0-1.24-.19l-.38.25a.69.69,0,0,1-.49.25,100.88,100.88,0,0,1-15.69.87h-5.47a26.18,26.18,0,0,1-5.48-.5,7.45,7.45,0,0,1-1.87-3.11A3.86,3.86,0,0,0,467,92c-.16-.42-.37-.62-.62-.62a6.86,6.86,0,0,0-3.11,1.37,6.79,6.79,0,0,1-.68.56,4.86,4.86,0,0,0-.81.68,7.12,7.12,0,0,0-1.37,1.24,26.31,26.31,0,0,1-8,2.74,24.52,24.52,0,0,1-5.72.75c-1.91,0-3.32,0-4.24.12A44,44,0,0,1,434,98.54Z"/><path d="M535.73,97.92A25.58,25.58,0,0,1,521,87.84q-5.85-8.34-5.85-24.27a54.55,54.55,0,0,1,2.62-17.49A35.57,35.57,0,0,1,525.4,33,33.64,33.64,0,0,1,537,25a37,37,0,0,1,14.31-2.74q12.94,0,26.89,8.09l-1.62,14-2.86-.63-3.86-.87a28.28,28.28,0,0,0-6.1-.75q-5.85,0-8.72,4-3.72,5-3.73,16,0,9.09,2.61,13.7a7.65,7.65,0,0,0,6.73,3.85,16,16,0,0,0,7-2,55.51,55.51,0,0,0,7.46-4.35L576.31,91a31.36,31.36,0,0,1-10.71,6.48,29.49,29.49,0,0,1-11.82,2.48A68.17,68.17,0,0,1,535.73,97.92Z"/><path d="M645.27,96.55c-.17-.41-.38-.62-.63-.62l-.12-.25a.51.51,0,0,1-.31-.18c-.13-.13-.23-.19-.31-.19l-9.84-11.2a9.28,9.28,0,0,0-1-1.25c-.58-.66-1-1.16-1.37-1.49a18.37,18.37,0,0,1-1.49-1.62,3.17,3.17,0,0,0-1.13-.62c-.49,0-.74.29-.74.87v2.61a23.52,23.52,0,0,0-.25,4c-.08,1-.13,2.32-.13,4q-.12,1.24-.12,2.61v2c0,1.17-.12,1.75-.37,1.75h-2.12c-2.41.25-6,.37-10.7.37H597l-4.73-1.12-.37-.87V94.06a22.24,22.24,0,0,1-.13-3.11c-.08-1.66-.12-4.68-.12-9.08a30.24,30.24,0,0,0-.25-4.61V73.53Q591,54.6,591,34.81v-3a13.74,13.74,0,0,1-.25-2.74V26.85a.41.41,0,0,1,.25-.38,2.24,2.24,0,0,1,.93-1.43,5.81,5.81,0,0,1,1.81-.68,3.48,3.48,0,0,1,.93.12,3.61,3.61,0,0,0,1.06.13c1.16.17,1.86.25,2.11.25H619l9.59.12a.48.48,0,0,1,.37.13.5.5,0,0,1,.12.37,6.81,6.81,0,0,1,.5,2.61,8.84,8.84,0,0,1,.13,1.75c0,3.56,0,6.22-.13,8a46.06,46.06,0,0,0-.5,6.72,4,4,0,0,0,2.37-.62,1.8,1.8,0,0,1,.37-.25.8.8,0,0,0,.38-.37,4.72,4.72,0,0,1,1.12-1l1.86-1.86q4.37-3.87,4-3.61l10-9.34,2.42-2L653.36,24a8.09,8.09,0,0,1,2.61-1.5c.42,0,.87.42,1.37,1.25a16,16,0,0,1,1.49,1.61,16.07,16.07,0,0,0,3.12,4l2.49,2.43c1.41,1.57,2.48,2.86,3.23,3.86a14.35,14.35,0,0,1,1.87,3.36v.25c0,1.24-1,2.82-2.86,4.73-.5.49-.94.91-1.31,1.24s-.69.62-.93.87L662.57,48c-.25,0-.58.29-1,.87l-4.23,3.49q-2.37,2.12-4.11,3.48l-1,.87-.87.62a4,4,0,0,0-1.25.63,1.11,1.11,0,0,1-.12.49,1.34,1.34,0,0,0-.13.63,2.94,2.94,0,0,0,.56,1.68c.38.54.77,1.06,1.19,1.55a5.68,5.68,0,0,0,1.61,1.25l1.25,1.24,2.11,1.87,4.11,3.61,3.61,3.36,4.23,4.11a35.35,35.35,0,0,1,3.05,3.55,4.09,4.09,0,0,1,.94,2.17,2.17,2.17,0,0,1-.87,1.87,27.2,27.2,0,0,1-3.49,2.86c-1.66,1.17-2.91,2.08-3.73,2.74a61.39,61.39,0,0,1-6.85,4.86c-.33.08-1.49.58-3.49,1.49l-2,1a4.62,4.62,0,0,1-1,.49,5.79,5.79,0,0,1-2.37.75,1.32,1.32,0,0,1-1-.37Z"/><path d="M722.44,111.37a9.52,9.52,0,0,1-1.5-.63,4.28,4.28,0,0,0-1.61-.37,4.9,4.9,0,0,1-1.75-.62,2.82,2.82,0,0,0-1.61-.63l-1.5-.37a2.61,2.61,0,0,1-1-.12c-.25,0-.38,0-.38-.13a36.34,36.34,0,0,1-8.09-2.86l-8.09-3.36a1.28,1.28,0,0,1-.87-1.24,3.32,3.32,0,0,1,.37-1.5l3.36-5.85a58,58,0,0,1,3.49-5.6A9.35,9.35,0,0,0,705,85a8.91,8.91,0,0,0,.75-2.12A70.82,70.82,0,0,0,701,75.14a31.18,31.18,0,0,0-4.61-6.59,13.26,13.26,0,0,0-1.12-2q-2-3.49-1.86-3.24l-2.12-3.74a30.38,30.38,0,0,1-2.12-3.73c-.49-.83-1-1.87-1.61-3.11a19.7,19.7,0,0,1-1.25-2.24,34.56,34.56,0,0,1-3.36-6c-1.49-3.31-2.24-5.31-2.24-6,0-.33.33-.77,1-1.31s1.41-1.1,2.24-1.68a51.89,51.89,0,0,1,5.22-2.24c1.08-.5,2-.91,2.8-1.24s1.44-.63,1.93-.87q2.87-1.38,8-3.37,1-.49,4.73-2a9.45,9.45,0,0,1,2.49-.37,1.68,1.68,0,0,1,1.24.5,5.64,5.64,0,0,1,1.5,2l4.35,9.46q3.74,7.84,5.23,10.58a6.51,6.51,0,0,1,.5.93,2.58,2.58,0,0,0,.5.81c.5.67.95,1,1.37,1a.89.89,0,0,0,.68-.38,3.68,3.68,0,0,0,.44-.62l8.46-22.28A4.15,4.15,0,0,1,735.51,25a4.92,4.92,0,0,1,3.36-.62q8.08,2.61,12,4.23A70.79,70.79,0,0,1,762,34.07a3.42,3.42,0,0,1,1.68,1.55,2.13,2.13,0,0,1,.06,1.81,4.14,4.14,0,0,1-.62,1.87l-.75,1.49L742.48,84l-1,2.49-12.2,23.28a8,8,0,0,1-1.55,2,2.37,2.37,0,0,1-1.56.56A17.58,17.58,0,0,1,722.44,111.37Z"/><path d="M823.07,99.48a33.51,33.51,0,0,1-8.4-1.56,9.92,9.92,0,0,1-4.73-3.73,11.75,11.75,0,0,1-1.49-6.35V84.73c.08-.83.12-2.07.12-3.74.08-.82.13-2.07.13-3.73q.12-1.24.12-2.61,0-4.74-.25-14.19L808.45,53q-.63-8.84-.63-21.41V23.49a38,38,0,0,1,.38-6.35,4.9,4.9,0,0,0,.31-1.12,6.78,6.78,0,0,0,.06-.75,4,4,0,0,1,1.87-3.36,8,8,0,0,1,2.74-.37,23.59,23.59,0,0,0,2.42-.13c.87-.08,1.81-.12,2.8-.12q2,0,6.23-.25l2.67-.25c1-.08,2.22-.12,3.55-.12,2.66-.17,4.52-.25,5.6-.25a168.47,168.47,0,0,1,23.9,2,147,147,0,0,1,14.94,2.36q9.08,2.25,13.81,5.85a16.77,16.77,0,0,1,6.1,13.32q0,10.45-8.58,15.81a6.84,6.84,0,0,1-1.12.56,9.8,9.8,0,0,0-1,.44,14.7,14.7,0,0,0-3.86,1.62,3.53,3.53,0,0,0-.62.43,2.43,2.43,0,0,0-.62.81.37.37,0,0,1,.12.25l.25.25a43.6,43.6,0,0,1,13.94,8.59,13.91,13.91,0,0,1,4,9.33q0,6.85-8.34,13.82a57,57,0,0,1-20.29,9.83,115.16,115.16,0,0,1-17.67,3.49,126.06,126.06,0,0,1-14.19.74Q828.36,99.91,823.07,99.48Zm27.07-21.72c.09,0,.13,0,.13-.13q8.72-4.23,19.79-9.21c.33-.33.54-.5.62-.5l.62-.37A51.53,51.53,0,0,0,861,65.44q-6.47-.25-10.7-.25c-.91,0-1.37.58-1.37,1.74v10c0,.58.33.87,1,.87Zm3.24-36.35a36.2,36.2,0,0,0,6.1-2.74c1.16-.49,2.3-1,3.42-1.55s1.89-.89,2.31-1.06l1.12-.5,1-.25c.33,0,.5-.2.5-.62q0-2.11-4.61-2.86a31.17,31.17,0,0,0-6.84-.62q-3.74,0-4.73,2.86A9.63,9.63,0,0,0,851,37.8v3.36q0,.63,1,.63A3.09,3.09,0,0,0,853.38,41.41Z"/><path d="M909.27,92.82a10.55,10.55,0,0,1,.62-3.36A7,7,0,0,1,910,88a4.17,4.17,0,0,0,.13-.94q2.86-13.56,6.35-26.76L925,27.22a1,1,0,0,1,.38-.62,4.13,4.13,0,0,1,.74-.62h.87a6.11,6.11,0,0,0,2.37-.38,19.11,19.11,0,0,1,2.61-.12c2,0,3.49,0,4.48.12A27.94,27.94,0,0,0,941,26l6.47-.13a10.13,10.13,0,0,1,2.37-.25l5.47-.25h4.11c1.58,0,3.11,0,4.61.13h3.48c.83.08,2,.12,3.61.12h4.73a2.46,2.46,0,0,1,.75.13,5,5,0,0,1,.62.25,2.85,2.85,0,0,0,1.24.25h1.12c.58.41.88.83.88,1.24l8.83,32.86q4.11,15.81,6.48,26.76a13.63,13.63,0,0,0,.37,2.37,21.65,21.65,0,0,1,.5,4,16.17,16.17,0,0,1-.25,2.37,1.92,1.92,0,0,1-1.74,1.24h-1.37a19.5,19.5,0,0,1-2.49-.12h-7.47a2,2,0,0,1-1-.13h-6.84l-.13-.25a1,1,0,0,0-.74-.25l-.38.25a.22.22,0,0,1-.25.25h-1.24a7,7,0,0,0-2.24-.25c-2-.16-3.65-.25-5-.25q-1.37-2.85-3.24-12.57a42.31,42.31,0,0,1-6,.38H950a20.11,20.11,0,0,0-.62,3.11c-.09.41-.42,1.82-1,4.23a19.43,19.43,0,0,1-1.62,4.85l-.74.25a8.59,8.59,0,0,1-.87.25h-.25a1.44,1.44,0,0,1-1-.25,2.44,2.44,0,0,0-.62-.25l-4.73.25H935c-.41.09-.74.15-1,.19a4.06,4.06,0,0,1-.5.06H922.59c-.75.09-2.29.13-4.61.13h-3a16.38,16.38,0,0,1-2.36.12h-1.5Q908.77,97.05,909.27,92.82Zm51-27.38-1-6c-.17-1.16-.34-2.22-.5-3.17s-.29-1.85-.38-2.68c-.24-1-.43-1.93-.55-2.8s-.28-1.68-.44-2.43c-.08-.5-.17-1.14-.25-1.93a5.56,5.56,0,0,0-.37-1.68l-.25-1.49a1.58,1.58,0,0,0-.25-.87l-.13-.75-.24.75v.87a1.53,1.53,0,0,1-.13.43,6,6,0,0,0-.25,1.06c-.08.42-.17.94-.25,1.56s-.2,1.31-.37,2.05l-.87,5.11-1,5.72L952.71,62a27.33,27.33,0,0,0-.5,3.24q-1.12,5.59-1,5.1h5.48a3,3,0,0,1,.38-.31.71.71,0,0,1,.37-.19h.37a3.61,3.61,0,0,1,1.06.13c.29.08.56.16.81.25a4.84,4.84,0,0,0,1.49.24C960.67,67.59,960.38,65.93,960.3,65.44Z"/><path d="M1024.9,99.42l-2.86-.5a47.84,47.84,0,0,1-6.85-1.49,5.52,5.52,0,0,1-2.61-.88,2,2,0,0,1-1.24-1l-2.74-15.44V79.5a3.66,3.66,0,0,1,.18-1.31,1.05,1.05,0,0,1,.81-.56,44.13,44.13,0,0,0,15.94,3.12c1.65,0,2.94,0,3.85.12,3.16,0,5.44-.41,6.85-1.25a2.37,2.37,0,0,0,1.12-2.11,4.63,4.63,0,0,0-1.24-3.3,10.65,10.65,0,0,0-3.61-2.3l-4-1.5a19.67,19.67,0,0,1-4-1.37.19.19,0,0,0-.12-.18.64.64,0,0,1-.25-.31A9.6,9.6,0,0,1,1022,67.3l-.75-.37c.17,0,.25,0,.25-.13s-.12-.16-.37-.24-.73-.44-1.43-.81a7.59,7.59,0,0,1-1.81-1.31,1.78,1.78,0,0,1-1.12-1.49v-.63c-2.07,0-3.86-2.15-5.35-6.47-1.24-4.4-1.87-7.51-1.87-9.33q0-11.58,10-17.81,8.09-5.1,22.28-6.84a220,220,0,0,1,22.9-1,13.63,13.63,0,0,0,2.74.75,3.31,3.31,0,0,1,3,1.49,7.35,7.35,0,0,1,.62,2.49q.38,2,.75,11.58a1,1,0,0,1,.25.75c0,.66-.92,1.2-2.74,1.61-2,.25-3.28.38-3.86.38l-2.86.37c-3.24.42-5.35.71-6.35.87-3.4.58-5.77,1.62-7.09,3.12a4.75,4.75,0,0,0-1.25,3.11,3,3,0,0,0,.25,1.37,3.39,3.39,0,0,0,1.24,1.12q1.13.61,6.48,3.11a67.38,67.38,0,0,1,11.45,6.47,18.71,18.71,0,0,1,7,9,14.65,14.65,0,0,1,1.12,6.23,18.17,18.17,0,0,1-.87,6q-3.24,8.22-12.2,13.44a42.23,42.23,0,0,1-8.84,3.93,29.91,29.91,0,0,1-8.84,1.43l-18.29.37Z"/><path d="M1123.86,97.3h-20.41q-1.12-1.74-1.5-6.35a107.36,107.36,0,0,1-.5-12l.13-13.69q.12-5,.12-15.81l-.37-.37H1089q-2.74,0-3.61-6.22a71,71,0,0,1-.5-9.84V31.45a11.08,11.08,0,0,0,.25-2.74V26.23l.12-1,.5-.5,2.24.13h2.49q5.48,0,8.34-.13h25.27c1.08.09,2.61.13,4.6.13h3.12a3.76,3.76,0,0,1,1.61-.25,5.76,5.76,0,0,1,1.62-.25,19.3,19.3,0,0,1,3.61.25c1.66.17,2.91.25,3.74.25l3.23-.13h4.86c2.49,0,4.19.05,5.1.13l1.74.12a3,3,0,0,0,.38.31c.16.13.24.23.24.31V46.76a2.52,2.52,0,0,1-.8,1.62,4,4,0,0,1-1.56,1.12,53.47,53.47,0,0,0-10.71-.87h-4.72q-1.87,0-2.49,4.73a23.47,23.47,0,0,0-.25,4v3.74c0,1.66,0,2.9.12,3.73V68.3a84.12,84.12,0,0,1-.5,9.46c-.16,2.16-.25,3.73-.25,4.73a27,27,0,0,0-.25,4.11q0,3.74-.24,6.22c-.09,2.57-1,3.94-2.87,4.11-2,.25-3.15.37-3.48.37Z"/><path d="M1168.29,92.82a10.59,10.59,0,0,1,.63-3.36A7,7,0,0,1,1169,88a4.84,4.84,0,0,0,.13-.94q2.85-13.56,6.34-26.76L1184,27.22a1,1,0,0,1,.37-.62,4.55,4.55,0,0,1,.75-.62h.87a6.05,6.05,0,0,0,2.36-.38,19.29,19.29,0,0,1,2.62-.12c2,0,3.48,0,4.48.12A27.85,27.85,0,0,0,1200,26l6.47-.13a10.1,10.1,0,0,1,2.36-.25l5.48-.25h4.11c1.57,0,3.11,0,4.6.13h3.49c.83.08,2,.12,3.61.12h4.73a2.35,2.35,0,0,1,.74.13,5.16,5.16,0,0,1,.63.25,2.82,2.82,0,0,0,1.24.25h1.12a1.66,1.66,0,0,1,.87,1.24l8.84,32.86q4.11,15.81,6.47,26.76a14,14,0,0,0,.38,2.37,21.49,21.49,0,0,1,.49,4,15.91,15.91,0,0,1-.24,2.37,1.92,1.92,0,0,1-1.75,1.24h-1.37a19.32,19.32,0,0,1-2.48-.12h-7.47c-.58,0-.92,0-1-.13h-6.85l-.12-.25a1.06,1.06,0,0,0-.75-.25l-.37.25a.22.22,0,0,1-.25.25h-1.24a7.05,7.05,0,0,0-2.24-.25c-2-.16-3.66-.25-5-.25-.92-1.9-2-6.09-3.24-12.57a42.31,42.31,0,0,1-6,.38H1209a20.11,20.11,0,0,0-.62,3.11c-.09.41-.42,1.82-1,4.23a19.43,19.43,0,0,1-1.62,4.85l-.75.25a7.89,7.89,0,0,1-.87.25h-.25a1.41,1.41,0,0,1-1-.25,2.44,2.44,0,0,0-.62-.25l-4.73.25h-3.49l-1,.19a4.06,4.06,0,0,1-.5.06h-11c-.74.09-2.28.13-4.6.13h-3a16.57,16.57,0,0,1-2.36.12h-1.5Q1167.79,97.05,1168.29,92.82Zm51-27.38-1-6c-.16-1.16-.33-2.22-.5-3.17s-.29-1.85-.37-2.68c-.25-1-.43-1.93-.56-2.8s-.27-1.68-.43-2.43c-.09-.5-.17-1.14-.25-1.93a5.5,5.5,0,0,0-.38-1.68l-.25-1.49a1.58,1.58,0,0,0-.24-.87l-.13-.75-.25.75v.87a1.41,1.41,0,0,1-.12.43,5.17,5.17,0,0,0-.25,1.06c-.08.42-.17.94-.25,1.56s-.21,1.31-.37,2.05l-.87,5.11-1,5.72-.37,2.74a25.36,25.36,0,0,0-.5,3.24q-1.12,5.59-1,5.1h5.48a3.68,3.68,0,0,1,.37-.31.72.72,0,0,1,.38-.19h.37a3.66,3.66,0,0,1,1.06.13c.29.08.56.16.81.25a4.84,4.84,0,0,0,1.49.24C1219.7,67.59,1219.41,65.93,1219.33,65.44Z"/><path d="M1317.66,87.47q-2.73-3.61-8.46-12.82l-2.12-3.36a3,3,0,0,0-.25-.25h-.62l-.5.25q-.12,1.62-.12,8.71,0,4.6-.5,10.83l-.12,3.73c-.34.92-.54,1.37-.63,1.37h-1.24q-13.69,1-19.92,1H1279a10.48,10.48,0,0,1-2-.13h-.87l-3.86-1.24-.25-.87c-.17,0-.27-.17-.31-.5a6.78,6.78,0,0,1-.06-.75q-.37-5.22-.62-7.59c-.34-4.48-.54-7.76-.63-9.83s-.25-3.28-.25-3.86l-.62-6.85-.12-3.73a28,28,0,0,1-.13-3.12V57.34a5.63,5.63,0,0,0,.25-2V53.24a4.78,4.78,0,0,0,.13-1.12l-.13-1V49.88a3,3,0,0,0-.25-1.37v-.75l.13-3.11a20.87,20.87,0,0,0,.12-2.62q.26-3.73.25-7.09V33.69a6.54,6.54,0,0,1-.12-1.61v-3a1.09,1.09,0,0,1-.38-.75c0-1.16,1-2,3.11-2.49a16.57,16.57,0,0,1,4.61-.5q29.13,0,43.57,2,14.19,2,19.91,6.84a13.49,13.49,0,0,1,3.55,5.54,24.08,24.08,0,0,1,1.06,7.53,17.51,17.51,0,0,1-4,11.7,22.92,22.92,0,0,1-6.1,4.36,59.44,59.44,0,0,0,4.36,7.47,20.77,20.77,0,0,1,1.43,1.86,22.74,22.74,0,0,0,1.68,2.12q2.37,3.24,5.48,7.1a12,12,0,0,0,1,2.11c.41.17.64.36.68.56a1.31,1.31,0,0,1-.19.81q-1,1.5-5.85,4.36a11.51,11.51,0,0,1-1.49,1.24,36.73,36.73,0,0,1-6.85,4.11,39.7,39.7,0,0,1-6.84,3c-.75.41-1.21.49-1.37.25A78.43,78.43,0,0,1,1317.66,87.47Zm-9-33.61a14.49,14.49,0,0,0,3.73-1.49,16.71,16.71,0,0,0,3.24-2.49,5.64,5.64,0,0,0,1.37-3.74,7.58,7.58,0,0,0-2.12-5.6,7.1,7.1,0,0,0-4.6-1.49H1305c0,1.08-.09,2.78-.25,5.1l-.13,2.61c-.16,1.67-.25,4.24-.25,7.72A20.43,20.43,0,0,0,1308.7,53.86Z"/><path d="M1366.21,96.8c-1.17,0-2-.74-2.37-2.24a17.23,17.23,0,0,1-.37-4.35c0-3.74-.09-7-.25-9.84q0-3.86-.25-14.06l-.12-14.94V27.84a2.84,2.84,0,0,1,.93-1.86,2.56,2.56,0,0,1,1.8-1l7.22.13c1.16.08,2.87.12,5.11.12q3.6.12,9,.12,8,0,12.45-.12t14.56-.25a32.39,32.39,0,0,1,12.82,2.49,25.74,25.74,0,0,1,11.7,9.71q5,7.73,5,20,0,11.09-2.43,18.55a26.19,26.19,0,0,1-7.78,12.07,33.86,33.86,0,0,1-14.37,6.91,95.53,95.53,0,0,1-22.22,2.18h-14.07Q1377.79,96.81,1366.21,96.8Zm34.85-14.19a2.74,2.74,0,0,0,1.24-.62q1.88-1.86,3.49-11.08a102.62,102.62,0,0,0,1.37-16v-2a54.7,54.7,0,0,0-.62-8.34,24.32,24.32,0,0,0-2-8,2.56,2.56,0,0,0-2.24-1.37,8,8,0,0,0-2.73.62l-.88.37q0,2.87-.24,12.82l-.13,7.72c0,1.66,0,3-.12,3.86l-.13,3.86-.62,18.42A16.05,16.05,0,0,0,1401.06,82.61Z"/><path class="cls-1" d="M53.52,98.33a.7.7,0,0,0-.49.13l-.38.12c-.25,0-.37-.08-.37-.25a1.09,1.09,0,0,1-.62-.74,35.71,35.71,0,0,1-5.61-1.25L41.7,95.1h-.62a1.83,1.83,0,0,1-1-.25,5.88,5.88,0,0,1-1.87-.25A18.88,18.88,0,0,1,35,93.73c-1.5-.5-2.58-.87-3.24-1.12-1.33-.42-3.24-1.12-5.73-2.12a22.44,22.44,0,0,0-2.61-1l-2.86-1.75a2,2,0,0,1-1-1.49,12.75,12.75,0,0,1,1.12-5c.25-.58.6-1.28,1.06-2.11A23.63,23.63,0,0,0,23,76.3a9.11,9.11,0,0,1,1.37-2.24c2-3.32,3.07-5.14,3.23-5.48a7.38,7.38,0,0,0,.5-2.48,5.61,5.61,0,0,0-2-3.86,5.29,5.29,0,0,1-1.87-3.61c-.41,0-.62,0-.62.12h-.37a.69.69,0,0,1-.25-.5,95.84,95.84,0,0,1-8.09-12.07A147.58,147.58,0,0,1,6.47,31.24a26.86,26.86,0,0,1-2.36-5.35A53.45,53.45,0,0,1,1.37,19a20.73,20.73,0,0,1-1.37-5c0-.82.91-1.9,2.74-3.23a25.21,25.21,0,0,1,2.61-1.5L7.59,8.21q.63-.12,5.23-1.36l1.74-.63a1.82,1.82,0,0,1,1.12-.37,9.29,9.29,0,0,0,2.37-.5q3.6-.75,4.23-1l4.48-1C29.25,2.53,30.7,2.07,31.12,2l.25-.12H32c1.74,0,2.9.41,3.48,1.24A24.39,24.39,0,0,1,38,6.6a7.42,7.42,0,0,0,.94,1.74,9.76,9.76,0,0,0,.93,1.24l1,1.37.87,1a12,12,0,0,1,1,1.49c.33.58.71,1.21,1.12,1.87a88.41,88.41,0,0,0,5,8.09c.75,1.08,1.37,1.62,1.87,1.62.25,0,.66-.46,1.25-1.37q1.11-1.74,4.1-8,1.62-4,3.86-9.08a23.43,23.43,0,0,0,1.25-2.74A6.31,6.31,0,0,1,62.24,1a2.41,2.41,0,0,1,2.24-1A45.26,45.26,0,0,1,74.93,1.62a70.32,70.32,0,0,1,12.2,4.85q6,3.24,8.09,6a12.42,12.42,0,0,1-1.62,6.22L82.15,43.94,71,69.33l-.5.13c-.08,0-.21.08-.37.25Q61.86,85.76,55,98.58c-.17.33-.67.5-1.5.5Z"/><path class="cls-1" d="M139.66,90.12a10.72,10.72,0,0,0-2.74-.25,41.68,41.68,0,0,1-11.7-2.12h-.87a4.17,4.17,0,0,1-1.87-.49,2.45,2.45,0,0,0-.62-.44,5.36,5.36,0,0,1-.87-.56l-2.62-1.49a21.54,21.54,0,0,1-6.6-5.92,33.82,33.82,0,0,1-4.6-8.4,46.6,46.6,0,0,1,.62-36.22A39,39,0,0,1,119.12,19a27.39,27.39,0,0,1,17.42-6.22,31.69,31.69,0,0,1,4.61.25c0-.17.12-.25.37-.25h.38q8.7,0,15.56.62a32.27,32.27,0,0,1,10.83,3.61q9.94,6.6,14.31,14.44,4.6,8.72,4.61,20.54a45.75,45.75,0,0,1-5.61,22.16l-1.24,2c-.33.5-.54.74-.62.74l-.38.63-.87.49q-5.36,8-16.18,10.83-7.22,1.5-19.92,1.5A21.61,21.61,0,0,1,139.66,90.12Zm6.59-10.46q1.5-2.23,2.49-8.71c.09-.75.29-2.41.63-5s.53-5,.62-7.22q.49-8.46.5-10.46V44.44a68.18,68.18,0,0,0-.38-7.72,29.91,29.91,0,0,0-1.49-8.09q-1.12-1.5-1.74-1.5c-.83,0-1.62.63-2.37,1.87s-1.33,3.53-1.74,6.85l-2.62,19.91v4.11q.38,5.24.38,6.85l.25,3,.37,4a5.41,5.41,0,0,0,.25,1.74L142.77,80a1.08,1.08,0,0,0,.68.74,2.59,2.59,0,0,0,1.06.25A1.91,1.91,0,0,0,146.25,79.66Z"/><path class="cls-1" d="M216.21,88.87A23.61,23.61,0,0,1,211,87.13a13.14,13.14,0,0,1-4.36-3.48q-4-5-5.35-13.07a80,80,0,0,1-.75-14.44V50.66a8.66,8.66,0,0,1,.13-1.74v-6l.37-.87a1.8,1.8,0,0,1,.06-.37,4.32,4.32,0,0,0,.06-.87q.38-4.48.38-7.22l.25-4.61q.12-3.11.12-7.22a14,14,0,0,0-.12-2.24,14.67,14.67,0,0,1-.25-2.36c0-1.25,1.28-1.87,3.86-1.87h1.74a5.06,5.06,0,0,0,2-.25l15.19.25c.25.25.41.37.49.37l1-.37c4.31,0,7.1.42,8.34,1.24a4.92,4.92,0,0,1,1.8,2.62,15.73,15.73,0,0,1,.57,4.73c0,1.33.08,3.15.24,5.48a42,42,0,0,1,.25,5.47V36.1c-.16,2.4-.33,6.35-.49,11.82l-.13,6v5.35a24.79,24.79,0,0,0-.25,4V67a19.27,19.27,0,0,0,.5,4.85c.41.67.79,1,1.12,1a32.32,32.32,0,0,0,5.6-1.87l3-1.49c.83-.34,1.24-.67,1.24-1V27.51a30.52,30.52,0,0,1-.37-4.11,10.69,10.69,0,0,1-.12-1.87V18.42a2.89,2.89,0,0,1,.62-2.11c.16-.25.58-.38,1.24-.38a.8.8,0,0,1,.5.19.52.52,0,0,1,.25.43v.25a23.78,23.78,0,0,1,5.35-.87,67.83,67.83,0,0,1,7.47-.37H270l13.07.37a.71.71,0,0,1,.43.13c.13.08.19.16.19.25s.12.08.12.24v.63c-.08,0-.12.12-.12.37l.62-.12a.4.4,0,0,1,.38-.25c.25,0,.37.2.37.62q0,21.78-.19,36.16T283.79,83a3.68,3.68,0,0,1-1,1.87,11.32,11.32,0,0,1-.87,1,.85.85,0,0,1-.38.37,1.47,1.47,0,0,0-.37.25,2.47,2.47,0,0,0-.87-.31,5.06,5.06,0,0,0-1.25-.19l-.37.25a.71.71,0,0,1-.5.25,100.73,100.73,0,0,1-15.68.87H257a26.84,26.84,0,0,1-5.47-.5,7.24,7.24,0,0,1-1.87-3.11,3.86,3.86,0,0,0-.5-1.49c-.17-.42-.37-.63-.62-.63A6.93,6.93,0,0,0,245.46,83a5,5,0,0,1-.69.56,6.7,6.7,0,0,0-.81.69,7.44,7.44,0,0,0-1.37,1.24,26.25,26.25,0,0,1-8,2.74,24.67,24.67,0,0,1-5.73.75q-2.86,0-4.23.12A44,44,0,0,1,216.21,88.87Z"/><path class="cls-1" d="M353.12,87.13c-3.57,0-6.3,0-8.21-.12l-10.21-.13a3.43,3.43,0,0,1-3.11-3.11V44.44l-.13-10.21q0-5.1.25-12.82,0-1.62.38-8.34V10.21a10.1,10.1,0,0,1,1.37-5.6,2.1,2.1,0,0,1,2-1.13q6.09,0,13.32.25a22.88,22.88,0,0,0,2.86.13q4.11,0,6.1.12h9.65a9.26,9.26,0,0,1,3.79.63c1.5.83,2.24,2.73,2.24,5.72l-.12,1a17.8,17.8,0,0,1-.25,1.86,15.57,15.57,0,0,0-.37,2.74,20.63,20.63,0,0,0,.37,3.49,16.43,16.43,0,0,1,.25,2l.12.75V56.88a1.22,1.22,0,0,0,1.12,1.25,6.7,6.7,0,0,0,1.62.12h9.09q3.36-.12,10.2-.12a3.15,3.15,0,0,1,2.24.81,2.33,2.33,0,0,1,.88,1.68v24a1.86,1.86,0,0,1-1,1.62,8.07,8.07,0,0,1-2.61.62,24.83,24.83,0,0,1-5.11.38h-18Q359,87.26,353.12,87.13Z"/><path class="cls-1" d="M425.69,88.87a23.79,23.79,0,0,1-5.23-1.74,13.11,13.11,0,0,1-4.35-3.48q-4-5-5.36-13.07A80,80,0,0,1,410,56.14V50.66a9.64,9.64,0,0,1,.12-1.74v-6l.38-.87a1.8,1.8,0,0,1,.06-.37,4.32,4.32,0,0,0,.06-.87q.38-4.48.37-7.22l.25-4.61c.08-2.07.13-4.48.13-7.22a13.64,13.64,0,0,0-.13-2.24,14.67,14.67,0,0,1-.25-2.36c0-1.25,1.29-1.87,3.86-1.87h1.74a5.16,5.16,0,0,0,2-.25l15.18.25c.25.25.42.37.5.37l1-.37c4.31,0,7.09.42,8.34,1.24a5,5,0,0,1,1.8,2.62A16.11,16.11,0,0,1,446,23.9c0,1.33.08,3.15.25,5.48a43.87,43.87,0,0,1,.25,5.47V36.1c-.17,2.4-.33,6.35-.5,11.82l-.12,6v5.35a24.79,24.79,0,0,0-.25,4V67a19.17,19.17,0,0,0,.49,4.85c.42.67.79,1,1.12,1A32.28,32.28,0,0,0,452.83,71l3-1.49c.83-.34,1.25-.67,1.25-1V27.51a30.84,30.84,0,0,1-.38-4.11,10.69,10.69,0,0,1-.12-1.87V18.42a2.94,2.94,0,0,1,.62-2.11c.17-.25.58-.38,1.25-.38a.83.83,0,0,1,.5.19.54.54,0,0,1,.24.43v.25a23.91,23.91,0,0,1,5.36-.87,67.83,67.83,0,0,1,7.47-.37h7.46l13.07.37a.74.74,0,0,1,.44.13c.12.08.19.16.19.25s.12.08.12.24v.63c-.08,0-.12.12-.12.37l.62-.12a.38.38,0,0,1,.37-.25c.25,0,.37.2.37.62q0,21.78-.18,36.16T493.28,83a3.64,3.64,0,0,1-1,1.87,11.32,11.32,0,0,1-.87,1,.78.78,0,0,1-.37.37,1.31,1.31,0,0,0-.37.25,2.66,2.66,0,0,0-.88-.31,5,5,0,0,0-1.24-.19l-.37.25a.73.73,0,0,1-.5.25,100.82,100.82,0,0,1-15.68.87h-5.48a26.94,26.94,0,0,1-5.48-.5,7.45,7.45,0,0,1-1.87-3.11,3.85,3.85,0,0,0-.49-1.49q-.26-.63-.63-.63A7,7,0,0,0,454.94,83a4.31,4.31,0,0,1-.68.56,6.7,6.7,0,0,0-.81.69,7.12,7.12,0,0,0-1.37,1.24,26.31,26.31,0,0,1-8,2.74,24.52,24.52,0,0,1-5.72.75q-2.86,0-4.23.12A44.15,44.15,0,0,1,425.69,88.87Z"/><path class="cls-1" d="M527.38,88.25A25.56,25.56,0,0,1,512.7,78.17q-5.87-8.34-5.85-24.27a54.79,54.79,0,0,1,2.61-17.49,35.57,35.57,0,0,1,7.59-13.13,33.64,33.64,0,0,1,11.58-8,37.07,37.07,0,0,1,14.31-2.74q12.94,0,26.89,8.09L568.21,34.6,565.35,34l-3.86-.87a28.28,28.28,0,0,0-6.1-.75q-5.85,0-8.71,4-3.73,5-3.74,16,0,9.09,2.62,13.7A7.65,7.65,0,0,0,552.28,70a16,16,0,0,0,7-2,56.25,56.25,0,0,0,7.47-4.35L568,81.28a31.14,31.14,0,0,1-10.7,6.47,29.38,29.38,0,0,1-11.83,2.49A68.17,68.17,0,0,1,527.38,88.25Z"/><path class="cls-1" d="M636.92,86.88c-.17-.41-.37-.62-.62-.62l-.13-.25c-.08,0-.18-.06-.31-.19a.51.51,0,0,0-.31-.18l-9.83-11.2a10.88,10.88,0,0,0-1-1.25c-.58-.66-1-1.16-1.37-1.49a18.37,18.37,0,0,1-1.49-1.62,3,3,0,0,0-1.12-.62q-.75,0-.75.87v2.61a23.47,23.47,0,0,0-.25,4q-.12,1.5-.12,4a24.26,24.26,0,0,0-.13,2.61v2c0,1.17-.12,1.75-.37,1.75H617c-2.4.24-6,.37-10.7.37H588.62l-4.73-1.12-.37-.87V84.39a24.8,24.8,0,0,1-.12-3.11q-.14-2.49-.13-9.09a30.09,30.09,0,0,0-.25-4.6V63.86q-.37-18.93-.37-38.72v-3a13.74,13.74,0,0,1-.25-2.74V17.18a.41.41,0,0,1,.25-.38,2.25,2.25,0,0,1,.93-1.43,5.81,5.81,0,0,1,1.81-.68,3.48,3.48,0,0,1,.93.12,3.61,3.61,0,0,0,1.06.13c1.16.16,1.87.25,2.12.25h21.16l9.58.12a.44.44,0,0,1,.5.5,7,7,0,0,1,.5,2.61,9.8,9.8,0,0,1,.12,1.74q0,5.36-.12,8a44.7,44.7,0,0,0-.5,6.72,4,4,0,0,0,2.36-.62,1.38,1.38,0,0,1,.38-.25.78.78,0,0,0,.37-.37,4.72,4.72,0,0,1,1.12-1l1.87-1.87q4.35-3.85,4-3.61l10-9.33,2.43-2,1.8-1.5a8.18,8.18,0,0,1,2.61-1.49c.42,0,.88.42,1.37,1.24a17.75,17.75,0,0,1,1.5,1.62,16,16,0,0,0,3.11,4.05l2.49,2.43c1.41,1.57,2.49,2.86,3.23,3.85a14.63,14.63,0,0,1,1.87,3.37v.24q0,1.88-2.86,4.73c-.5.5-.94.92-1.31,1.25s-.68.62-.93.87l-1.87,1.87q-.37,0-1,.87L649,42.69q-2.36,2.13-4.1,3.49l-1,.87-.87.62a4.3,4.3,0,0,0-1.25.62,1.11,1.11,0,0,1-.12.5,1.47,1.47,0,0,0-.13.63,2.94,2.94,0,0,0,.56,1.68c.38.54.77,1,1.19,1.55a6,6,0,0,0,1.62,1.25l1.24,1.24L648.25,57l4.1,3.61L656,64l4.24,4.11a38.15,38.15,0,0,1,3,3.54,4.12,4.12,0,0,1,.93,2.18,2.14,2.14,0,0,1-.87,1.87,28.09,28.09,0,0,1-3.49,2.86q-2.49,1.75-3.73,2.74a59.56,59.56,0,0,1-6.85,4.86,37.73,37.73,0,0,0-3.48,1.49l-2,1a4.59,4.59,0,0,1-1,.5,5.79,5.79,0,0,1-2.37.75,1.34,1.34,0,0,1-1-.37Z"/><path class="cls-1" d="M714.09,101.7a9.13,9.13,0,0,1-1.49-.63,4.1,4.1,0,0,0-1.62-.37,4.87,4.87,0,0,1-1.74-.62,2.82,2.82,0,0,0-1.62-.63l-1.5-.37a2.65,2.65,0,0,1-1-.12c-.25,0-.38,0-.38-.13A36.6,36.6,0,0,1,696.67,96l-8.1-3.36a1.29,1.29,0,0,1-.87-1.25,3.33,3.33,0,0,1,.38-1.49L691.44,84a56.48,56.48,0,0,1,3.48-5.6,9.52,9.52,0,0,0,1.75-3.11,9.33,9.33,0,0,0,.74-2.12,69.29,69.29,0,0,0-4.73-7.72,31,31,0,0,0-4.6-6.59,14.79,14.79,0,0,0-1.12-2c-1.33-2.32-2-3.4-1.87-3.23L683,49.91a31.38,31.38,0,0,1-2.11-3.73,34.37,34.37,0,0,1-1.62-3.11A21.65,21.65,0,0,1,678,40.83a34.56,34.56,0,0,1-3.36-6q-2.24-5-2.24-6c0-.33.33-.77,1-1.31s1.41-1.1,2.24-1.68a51.68,51.68,0,0,1,5.23-2.24c1.07-.5,2-.91,2.8-1.25s1.43-.62,1.93-.87c1.9-.91,4.56-2,8-3.36.67-.33,2.24-1,4.73-2a9.57,9.57,0,0,1,2.49-.37,1.68,1.68,0,0,1,1.25.5,5.66,5.66,0,0,1,1.49,2l4.36,9.46q3.74,7.85,5.22,10.58a5.65,5.65,0,0,1,.5.93,2.71,2.71,0,0,0,.5.81c.5.67.95,1,1.37,1a.87.87,0,0,0,.68-.38,3.18,3.18,0,0,0,.44-.62L725,17.8a4.18,4.18,0,0,1,2.12-2.49,4.92,4.92,0,0,1,3.36-.62q8.09,2.61,12,4.23a69.49,69.49,0,0,1,11.2,5.48A3.42,3.42,0,0,1,755.35,26a2.13,2.13,0,0,1,.07,1.81,4.22,4.22,0,0,1-.63,1.86l-.74,1.5L734.13,74.31l-1,2.49-12.19,23.28a7.74,7.74,0,0,1-1.56,2,2.42,2.42,0,0,1-1.55.56A17.6,17.6,0,0,1,714.09,101.7Z"/><path class="cls-1" d="M814.72,89.81a33.69,33.69,0,0,1-8.4-1.56,10,10,0,0,1-4.73-3.73,11.84,11.84,0,0,1-1.49-6.35V75.06c.08-.83.12-2.08.12-3.74.08-.83.13-2.07.13-3.73.08-.83.12-1.7.12-2.62q0-4.72-.25-14.18l-.12-7.47q-.63-8.84-.62-21.41V13.82a38.22,38.22,0,0,1,.37-6.35,4.9,4.9,0,0,0,.31-1.12,6.78,6.78,0,0,0,.06-.75,4,4,0,0,1,1.87-3.36,8,8,0,0,1,2.74-.37,23.78,23.78,0,0,0,2.43-.13c.87-.08,1.8-.12,2.8-.12,1.32,0,3.4-.08,6.22-.25.75-.08,1.64-.17,2.68-.25S821.18,1,822.5,1c2.66-.17,4.53-.25,5.6-.25a168.47,168.47,0,0,1,23.9,2A141.56,141.56,0,0,1,866.94,5.1Q876,7.35,880.76,11a16.8,16.8,0,0,1,6.1,13.32q0,10.45-8.59,15.81a6.84,6.84,0,0,1-1.12.56,8,8,0,0,0-1,.44,15,15,0,0,0-3.86,1.61,4.13,4.13,0,0,0-.62.44,2.43,2.43,0,0,0-.62.81.37.37,0,0,1,.12.25l.25.25A43.6,43.6,0,0,1,885.36,53q4,4.47,4,9.33,0,6.86-8.34,13.82A57.31,57.31,0,0,1,860.72,86,115.52,115.52,0,0,1,843,89.5a128.46,128.46,0,0,1-14.19.74Q820,90.24,814.72,89.81ZM841.8,68.09c.08,0,.12,0,.12-.13q8.72-4.23,19.79-9.21c.33-.33.54-.5.62-.5l.63-.37a52.56,52.56,0,0,0-10.33-2.12q-6.48-.24-10.71-.24c-.91,0-1.37.58-1.37,1.74v9.95c0,.59.33.88,1,.88ZM845,31.74a37,37,0,0,0,6.1-2.74c1.16-.5,2.31-1,3.43-1.55s1.88-.9,2.3-1.06l1.12-.5,1-.25c.33,0,.5-.2.5-.62,0-1.41-1.53-2.37-4.6-2.86a31.26,31.26,0,0,0-6.85-.63q-3.74,0-4.73,2.87a9.63,9.63,0,0,0-.62,3.73v3.36c0,.42.33.62,1,.62A3,3,0,0,0,845,31.74Z"/><path class="cls-1" d="M900.92,83.15a10.84,10.84,0,0,1,.62-3.36,6.28,6.28,0,0,1,.13-1.43,4.71,4.71,0,0,0,.12-.94q2.87-13.56,6.35-26.76l8.46-33.11a1,1,0,0,1,.38-.62,5,5,0,0,1,.74-.62h.88a6.08,6.08,0,0,0,2.36-.38,19.11,19.11,0,0,1,2.61-.12c2,0,3.49,0,4.49.12a27.72,27.72,0,0,0,4.6.38l6.47-.13a10.19,10.19,0,0,1,2.37-.25l5.48-.25h4.1c1.58,0,3.11.05,4.61.13h3.48c.83.08,2,.12,3.61.12h4.73a2.19,2.19,0,0,1,.75.13,3.78,3.78,0,0,1,.62.25,2.87,2.87,0,0,0,1.25.24h1.12c.58.42.87.83.87,1.25L981,50.66q4.1,15.81,6.47,26.76a13.63,13.63,0,0,0,.37,2.37,21.65,21.65,0,0,1,.5,4,14.88,14.88,0,0,1-.25,2.37,1.91,1.91,0,0,1-1.74,1.24h-1.37a19.5,19.5,0,0,1-2.49-.12H975a2,2,0,0,1-1-.13h-6.85l-.12-.25a1.06,1.06,0,0,0-.75-.25l-.37.25a.22.22,0,0,1-.25.25H964.4a7,7,0,0,0-2.24-.25c-2-.16-3.65-.25-5-.25-.91-1.9-2-6.1-3.23-12.57a42.56,42.56,0,0,1-6,.38h-6.35a20.11,20.11,0,0,0-.62,3.11c-.08.41-.42,1.82-1,4.23a20.13,20.13,0,0,1-1.61,4.85l-.75.25a8.59,8.59,0,0,1-.87.25h-.25a1.44,1.44,0,0,1-1-.25,2.44,2.44,0,0,0-.62-.25l-4.73.25h-3.48c-.42.09-.75.15-1,.19a4.06,4.06,0,0,1-.5.06h-11c-.75.08-2.28.13-4.61.13h-3a16.64,16.64,0,0,1-2.37.12h-1.49Q900.42,87.38,900.92,83.15Zm51-27.39-1-6c-.17-1.16-.33-2.22-.5-3.17s-.29-1.85-.37-2.68a26.63,26.63,0,0,1-.56-2.8c-.13-.87-.27-1.68-.44-2.43-.08-.5-.17-1.14-.25-1.93a5.41,5.41,0,0,0-.37-1.68l-.25-1.49a1.51,1.51,0,0,0-.25-.87l-.12-.75-.25.75v.87a1.53,1.53,0,0,1-.13.43,6.7,6.7,0,0,0-.25,1.06q-.12.63-.24,1.56c-.09.62-.21,1.3-.38,2.05l-.87,5.1-1,5.73-.37,2.74a27,27,0,0,0-.5,3.24c-.74,3.73-1.08,5.43-1,5.1h5.47a4,4,0,0,1,.38-.31.71.71,0,0,1,.37-.19h.37a3.61,3.61,0,0,1,1.06.13l.81.24a4.63,4.63,0,0,0,1.5.25Z"/><path class="cls-1" d="M1016.56,89.75l-2.87-.5a45.93,45.93,0,0,1-6.84-1.5,5.41,5.41,0,0,1-2.62-.87,2,2,0,0,1-1.24-1l-2.74-15.44v-.62a3.38,3.38,0,0,1,.19-1.31,1,1,0,0,1,.81-.56,44,44,0,0,0,15.93,3.11c1.66,0,2.94.05,3.86.13,3.15,0,5.43-.41,6.84-1.25a2.37,2.37,0,0,0,1.12-2.11,4.59,4.59,0,0,0-1.24-3.3,10.65,10.65,0,0,0-3.61-2.3l-4-1.5a20.38,20.38,0,0,1-4-1.37.19.19,0,0,0-.12-.18.64.64,0,0,1-.25-.31,9.84,9.84,0,0,1-2.12-1.25l-.74-.37c.16,0,.25,0,.25-.13s-.13-.16-.38-.25-.73-.43-1.43-.8a7.59,7.59,0,0,1-1.81-1.31c-.74-.42-1.12-.91-1.12-1.5v-.62c-2.07,0-3.85-2.15-5.35-6.47q-1.86-6.6-1.86-9.34,0-11.57,10-17.8,8.1-5.1,22.28-6.84a220,220,0,0,1,22.91-1,13.4,13.4,0,0,0,2.73.75,3.3,3.3,0,0,1,3,1.49,7.54,7.54,0,0,1,.63,2.49q.36,2,.74,11.58a1,1,0,0,1,.25.75c0,.66-.91,1.2-2.74,1.61-2,.25-3.28.38-3.86.38l-2.86.37c-3.24.42-5.35.71-6.35.87-3.4.58-5.77,1.62-7.09,3.11a4.84,4.84,0,0,0-1.25,3.11,3.16,3.16,0,0,0,.25,1.37,3.36,3.36,0,0,0,1.25,1.13q1.11.61,6.47,3.11A66.33,66.33,0,0,1,1059,49.79a18.65,18.65,0,0,1,7,9,14.6,14.6,0,0,1,1.12,6.22,18.19,18.19,0,0,1-.87,6Q1063,79.17,1054,84.39a41.68,41.68,0,0,1-8.84,3.92,29.55,29.55,0,0,1-8.83,1.44l-18.3.37Z"/><path class="cls-1" d="M1115.51,87.63H1095.1q-1.12-1.74-1.5-6.35a107.87,107.87,0,0,1-.49-12l.12-13.69q.12-5,.13-15.81l-.38-.37h-12.32q-2.75,0-3.61-6.23a72.45,72.45,0,0,1-.5-9.83V21.78a10.66,10.66,0,0,0,.25-2.74V16.55l.12-1,.5-.5,2.24.13h2.49c3.65,0,6.43,0,8.34-.13h25.27c1.08.08,2.61.13,4.61.13h3.11a3.78,3.78,0,0,1,1.62-.25,5.7,5.7,0,0,1,1.61-.25,19.3,19.3,0,0,1,3.61.25c1.66.16,2.91.25,3.74.25l3.23-.13h4.86c2.49,0,4.19,0,5.1.13l1.74.12a4,4,0,0,0,.38.31c.16.13.25.23.25.31V37.09a2.49,2.49,0,0,1-.81,1.62,3.88,3.88,0,0,1-1.56,1.12,53.43,53.43,0,0,0-10.7-.87h-4.73q-1.87,0-2.49,4.73a23.39,23.39,0,0,0-.25,4v3.74c0,1.66,0,2.9.12,3.73v3.49a84.23,84.23,0,0,1-.49,9.46c-.17,2.16-.25,3.73-.25,4.73a25.69,25.69,0,0,0-.25,4.1c0,2.49-.09,4.57-.25,6.23-.08,2.57-1,3.94-2.86,4.11-2,.24-3.16.37-3.49.37Z"/><path class="cls-1" d="M1160,83.15a10.55,10.55,0,0,1,.62-3.36,7,7,0,0,1,.12-1.43,4.17,4.17,0,0,0,.13-.94q2.87-13.56,6.35-26.76l8.46-33.11a1,1,0,0,1,.37-.62,4.55,4.55,0,0,1,.75-.62h.87a6.11,6.11,0,0,0,2.37-.38,19.11,19.11,0,0,1,2.61-.12c2,0,3.49,0,4.48.12a27.94,27.94,0,0,0,4.61.38l6.47-.13a10.13,10.13,0,0,1,2.37-.25l5.47-.25h4.11c1.58,0,3.11.05,4.61.13h3.48c.83.08,2,.12,3.61.12h4.73a2.19,2.19,0,0,1,.75.13,3.78,3.78,0,0,1,.62.25,2.86,2.86,0,0,0,1.24.24h1.12c.58.42.88.83.88,1.25L1240,50.66q4.11,15.81,6.48,26.76a13.63,13.63,0,0,0,.37,2.37,21.65,21.65,0,0,1,.5,4,16.17,16.17,0,0,1-.25,2.37,1.92,1.92,0,0,1-1.74,1.24H1244a19.5,19.5,0,0,1-2.49-.12H1234a2.08,2.08,0,0,1-1-.13h-6.84l-.13-.25a1,1,0,0,0-.74-.25l-.38.25a.22.22,0,0,1-.25.25h-1.24a7,7,0,0,0-2.24-.25c-2-.16-3.65-.25-5-.25-.92-1.9-2-6.1-3.24-12.57a42.31,42.31,0,0,1-6,.38h-6.35a20.11,20.11,0,0,0-.62,3.11c-.09.41-.42,1.82-1,4.23a19.59,19.59,0,0,1-1.62,4.85l-.74.25a8.59,8.59,0,0,1-.87.25h-.25a1.44,1.44,0,0,1-1-.25,2.44,2.44,0,0,0-.62-.25l-4.73.25h-3.49c-.41.09-.74.15-1,.19a4.06,4.06,0,0,1-.5.06h-11c-.75.08-2.29.13-4.61.13h-3a16.38,16.38,0,0,1-2.36.12h-1.5Q1159.46,87.38,1160,83.15Zm51-27.39-1-6c-.17-1.16-.34-2.22-.5-3.17s-.29-1.85-.38-2.68c-.24-1-.43-1.93-.56-2.8s-.27-1.68-.43-2.43c-.08-.5-.17-1.14-.25-1.93a5.41,5.41,0,0,0-.37-1.68l-.25-1.49a1.58,1.58,0,0,0-.25-.87l-.13-.75-.25.75v.87a1.41,1.41,0,0,1-.12.43,5.73,5.73,0,0,0-.25,1.06c-.08.42-.17.94-.25,1.56s-.21,1.3-.37,2.05l-.87,5.1-1,5.73-.37,2.74a27,27,0,0,0-.5,3.24q-1.12,5.59-1,5.1h5.48a3,3,0,0,1,.38-.31.71.71,0,0,1,.37-.19h.37a3.61,3.61,0,0,1,1.06.13l.81.24a4.57,4.57,0,0,0,1.49.25Q1211.1,56.51,1211,55.76Z"/><path class="cls-1" d="M1309.32,77.8q-2.74-3.61-8.47-12.83l-2.11-3.36-.25-.24h-.63l-.49.24q-.13,1.62-.13,8.72,0,4.61-.5,10.83l-.12,3.73c-.33.91-.54,1.37-.62,1.37h-1.25q-13.7,1-19.91,1h-4.24a11.49,11.49,0,0,1-2-.13h-.87l-3.86-1.24-.25-.87c-.16,0-.27-.17-.31-.5a6.78,6.78,0,0,1-.06-.75c-.25-3.48-.46-6-.62-7.59q-.5-6.72-.62-9.84c-.17-2-.25-3.27-.25-3.85l-.63-6.85-.12-3.73a31.2,31.2,0,0,1-.12-3.12V47.67a5.93,5.93,0,0,0,.24-2V43.57a4.36,4.36,0,0,0,.13-1.12l-.13-1V40.21a3.18,3.18,0,0,0-.24-1.37v-.75L1261,35a20.87,20.87,0,0,0,.12-2.62q.25-3.73.25-7.09V24a6.64,6.64,0,0,1-.12-1.62v-3a1.07,1.07,0,0,1-.37-.75c0-1.16,1-2,3.11-2.49a16.44,16.44,0,0,1,4.6-.5q29.13,0,43.57,2,14.19,2,19.91,6.85a13.33,13.33,0,0,1,3.55,5.54,24.08,24.08,0,0,1,1.06,7.53,17.56,17.56,0,0,1-4,11.7,23.48,23.48,0,0,1-6.1,4.36,60.23,60.23,0,0,0,4.35,7.47,22.89,22.89,0,0,1,1.44,1.86,21,21,0,0,0,1.67,2.12q2.37,3.24,5.48,7.09a12.38,12.38,0,0,0,1,2.12c.41.17.64.35.68.56a1.36,1.36,0,0,1-.18.81q-1,1.5-5.85,4.36a12.38,12.38,0,0,1-1.5,1.24,36.94,36.94,0,0,1-6.84,4.11,40.9,40.9,0,0,1-6.85,3c-.75.41-1.2.49-1.37.24A77.69,77.69,0,0,1,1309.32,77.8Zm-9-33.61a14.18,14.18,0,0,0,3.74-1.5,16.51,16.51,0,0,0,3.23-2.48,5.59,5.59,0,0,0,1.37-3.74,7.57,7.57,0,0,0-2.11-5.6,7.13,7.13,0,0,0-4.61-1.49h-5.35c0,1.08-.08,2.78-.25,5.1l-.12,2.61c-.17,1.66-.25,4.24-.25,7.72A21.11,21.11,0,0,0,1300.35,44.19Z"/><path class="cls-1" d="M1357.86,87.13c-1.16,0-1.95-.75-2.37-2.24a17.76,17.76,0,0,1-.37-4.36q0-5.59-.25-9.83,0-3.86-.25-14.07l-.12-14.93V18.17a2.84,2.84,0,0,1,.93-1.86,2.58,2.58,0,0,1,1.81-1l7.22.12c1.16.09,2.86.13,5.1.13,2.41.08,5.39.12,9,.12q8,0,12.45-.12t14.56-.25a32.39,32.39,0,0,1,12.82,2.49,25.74,25.74,0,0,1,11.7,9.71q5,7.71,5,20a61,61,0,0,1-2.42,18.55,26.32,26.32,0,0,1-7.78,12.07,34.08,34.08,0,0,1-14.38,6.91,95.47,95.47,0,0,1-22.22,2.18h-14.06Q1369.43,87.13,1357.86,87.13Zm34.85-14.19a2.85,2.85,0,0,0,1.25-.62q1.86-1.87,3.48-11.08a102.64,102.64,0,0,0,1.37-16.06v-2a54.7,54.7,0,0,0-.62-8.34,24.33,24.33,0,0,0-2-8,2.57,2.57,0,0,0-2.24-1.37,7.78,7.78,0,0,0-2.74.62l-.87.37q0,2.86-.25,12.82l-.13,7.72c0,1.66,0,3-.12,3.86l-.13,3.86-.62,18.42A16,16,0,0,0,1392.71,72.94Z"/><path class="cls-1" d="M394.21,272.27l-7.92-32.7-20.66-36.14,9.48-2.3L388,227.58l.22-.06-.28-29.5,9.6-2.32-2,41.64,7.92,32.7Z"/><path d="M393.64,273.2l-8.07-33.34-21.12-36.94,11.08-2.68,11.89,24.39-.25-27.21,11.19-2.71-2.09,42.56,8.08,33.34Zm-26.83-69.26L387,239.29l0,.1,7.74,31.95,7.71-1.86-7.77-32.06,2-40.73-8,1.94.28,29.5-1.42.34L374.69,202Z"/><path class="cls-1" d="M429.69,265.6q-6.9,1.42-12.33-4.45t-7.87-17.63q-2.44-11.76.18-19.34t9.53-9q6.9-1.44,12.37,4.46t7.9,17.66q2.44,11.75-.21,19.31T429.69,265.6Zm-8.9-42.41q-6.26,1.29-2.66,18.53t10,15.84q6.24-1.31,2.67-18.48T420.79,223.19Z"/><path d="M427.05,266.65c-3.76,0-7.2-1.67-10.26-5-3.69-4-6.41-10.06-8.06-18s-1.58-14.59.21-19.75c1.84-5.31,5.24-8.51,10.1-9.52s9.27.56,13.09,4.69,6.45,10.09,8.1,18,1.57,14.58-.25,19.73-5.27,8.49-10.13,9.5h0A13.62,13.62,0,0,1,427.05,266.65Zm-5.18-51a12.19,12.19,0,0,0-2.51.27c-4.36.9-7.29,3.69-9,8.51s-1.75,11.27-.16,18.93,4.18,13.47,7.69,17.27,7.25,5.12,11.61,4.21h0c4.36-.91,7.3-3.69,9-8.5s1.78-11.24.19-18.9S434.53,224,431,220.15C428.21,217.13,425.2,215.65,421.87,215.65Zm5.35,42.78c-2,0-3.87-1.26-5.45-3.75-1.71-2.7-3.19-7-4.4-12.8-2.51-12.11-1.45-18.47,3.26-19.45h0c2.49-.52,4.69.71,6.55,3.65,1.71,2.71,3.2,7,4.4,12.84s1.59,10.32,1.13,13.48c-.49,3.42-2,5.41-4.39,5.91A5.29,5.29,0,0,1,427.22,258.43ZM421,223.94c-4.54.95-3.63,10.11-2.07,17.62,1.17,5.61,2.58,9.75,4.2,12.3,1.49,2.36,3.1,3.32,4.92,2.94s2.79-1.87,3.19-4.62c.43-3,.05-7.33-1.11-12.94s-2.59-9.78-4.2-12.34c-1.5-2.37-3.12-3.34-4.93-3Z"/><path class="cls-1" d="M471.9,206.76l8.3,48.12-8.49,1.46-.9-5.2-.21,0q-2.36,6.52-7.54,7.41a9.79,9.79,0,0,1-8.46-2.3q-3.64-3.15-4.77-9.62l-6-35.06,8.49-1.46,5.93,34.42q1.19,6.84,5.72,6.06a5.91,5.91,0,0,0,4.2-3.21c1.05-1.83,1.52-3,1.42-3.6l-6.13-35.6Z"/><path d="M461.1,259.54a10.47,10.47,0,0,1-7-2.67c-2.56-2.2-4.24-5.59-5-10.07L442.9,211l10-1.72L459,244.44c.94,5.45,3.21,5.72,4.83,5.43a5.13,5.13,0,0,0,3.66-2.83c1.38-2.43,1.34-3,1.33-3.09l-6.27-36.35,10-1.73,8.56,49.63-10,1.73-.64-3.72c-1.69,3.34-4.12,5.3-7.25,5.84A11.6,11.6,0,0,1,461.1,259.54Zm-16.42-47.3,5.91,34.3c.71,4.12,2.23,7.2,4.51,9.16a9,9,0,0,0,7.83,2.13c3.19-.54,5.46-2.81,6.95-6.92l.15-.42,1.41-.24.9,5.2,7-1.2-8-46.6-7,1.2,6,34.84c.1.55,0,1.47-1.5,4.11a6.7,6.7,0,0,1-4.75,3.59c-2.42.41-5.53-.4-6.61-6.69L451.65,211Z"/><path class="cls-1" d="M535,248.39,516.4,200.24l8.69-1,9,25.38.23,0,4.33-26.85,3.27-.36,10.13,25.26.22,0,3.21-26.73,8.69-1L556.49,246l-2.41.26-11.39-28.2-.22,0-5,30Z"/><path d="M534.53,249.22l-19.21-49.63,10.3-1.14L534,222l4-24.91,4.43-.49,9.4,23.43,3-24.79,10.3-1.14-7.94,52.63-3.58.39-10.73-26.58-4.75,28.29Zm-17-48.32,18.06,46.66,1.23-.13,5-30,1.37-.15,11.39,28.2,1.24-.13,7.46-49.47-7.09.78L553,223.36l-1.41.16-10.13-25.26-2.1.23L535,225.34l-1.42.16-9-25.38Z"/><path class="cls-1" d="M587,243.52q-7,.58-11.69-5.93t-5.65-18.46q-1-12,2.56-19.17t10.56-7.78q7-.59,11.73,5.95t5.67,18.49q1,12-2.58,19.14T587,243.52Zm-3.63-43.18q-6.36.53-4.91,18.06t8,17q6.36-.53,4.93-18T583.41,200.34Z"/><path d="M585.91,244.34c-4.43,0-8.19-2.12-11.19-6.3-3.18-4.43-5.13-10.77-5.79-18.85s.22-14.66,2.63-19.57,6.25-7.8,11.2-8.21,9.13,1.7,12.41,6.27,5.16,10.8,5.82,18.88-.23,14.65-2.66,19.55-6.28,7.77-11.23,8.18h0C586.7,244.32,586.3,244.34,585.91,244.34ZM584,192.9c-.35,0-.71,0-1.07,0-4.44.36-7.69,2.77-9.94,7.35s-3.12,11-2.48,18.76,2.49,13.88,5.5,18.08,6.57,6,11,5.61h0c4.43-.36,7.69-2.76,10-7.33s3.15-10.94,2.51-18.74-2.51-13.88-5.54-18.1C591.18,194.77,587.91,192.9,584,192.9Zm2.13,43.24c-4.65,0-7.39-5.79-8.36-17.67-.49-5.91-.31-10.47.53-13.56.91-3.34,2.62-5.14,5.09-5.34h0c4.92-.39,7.83,5.39,8.84,17.71.49,5.89.31,10.44-.53,13.51-.91,3.34-2.63,5.13-5.09,5.33A4,4,0,0,1,586.09,236.14Zm-2.61-35c-1.78.14-3,1.52-3.73,4.21-.79,2.91-1,7.29-.49,13,.92,11.1,3.32,16.56,7.18,16.25,1.78-.15,3-1.52,3.73-4.2.79-2.9,1-7.27.49-13-.92-11.13-3.34-16.62-7.18-16.3Z"/><path class="cls-1" d="M610.79,240.34,608,191.6l8.6-.5.3,5.27h.22c2.16-4.19,5.06-6.39,8.67-6.6a9.32,9.32,0,0,1,8,3.37q3.15,3.65,3.55,10.47l2,35.09-8.6.5-2-34.88q-.4-7-5-6.77a5.89,5.89,0,0,0-4.49,2.93c-1.28,1.85-1.91,2.94-1.89,3.26l2.09,36.11Z"/><path d="M610.07,241.16l-2.91-50.28,10.13-.59.23,3.82c2.15-3.21,4.9-4.93,8.2-5.12a10.09,10.09,0,0,1,8.61,3.63c2.21,2.56,3.46,6.23,3.74,10.93l2.07,35.86L630,240l-2.07-35.64c-.36-6.27-3.26-6.11-4.21-6.05-1.49.08-2.76.93-3.91,2.6a16,16,0,0,0-1.75,2.84l2.14,36.82Zm-1.28-48.83,2.73,47.2,7.06-.41-2.05-35.34c0-.41.11-1,2-3.75a6.63,6.63,0,0,1,5.09-3.26c2.45-.15,5.47,1,5.84,7.5l2,34.1,7.06-.41-2-34.32c-.26-4.35-1.39-7.72-3.36-10a8.55,8.55,0,0,0-7.36-3.1c-3.36.2-6,2.22-8,6.18l-.2.39-1.42.08-.31-5.26Zm9.28,11.35h0Z"/><path class="cls-1" d="M704.2,228.61l.13,7.64a19.85,19.85,0,0,1-7.56,2q-9,.17-9.23-10.75L687,195.79l-5.6.1,0-.76a181.31,181.31,0,0,0,13.13-19.6l.75,0,.22,12.6,8-.14.12,7.54-8,.13.47,27.84q.07,3.87.82,5.23a2.76,2.76,0,0,0,2.69,1.32A11.61,11.61,0,0,0,704.2,228.61Z"/><path d="M696.51,239c-6.33,0-9.61-3.88-9.74-11.52l-.53-30.94-5.6.09,0-1.8.17-.21a181.22,181.22,0,0,0,13.06-19.53l.22-.37,2,0,.21,12.59,8-.13.16,9.07-8,.14.47,27.06c0,3,.42,4.33.72,4.87s.69.95,2,.93a10.88,10.88,0,0,0,4.27-1.35l1.1-.53.16,9.36-.46.21a20.61,20.61,0,0,1-7.87,2.08Zm-8.76-44,.56,32.48c.12,6.83,2.91,10.08,8.45,10a18.4,18.4,0,0,0,6.79-1.74l-.11-5.95a10.29,10.29,0,0,1-3.84,1,3.47,3.47,0,0,1-3.37-1.72c-.57-1-.87-2.86-.92-5.59l-.49-28.61,8-.13-.1-6-8,.14L694.51,177a182.47,182.47,0,0,1-12.12,18.08Z"/><path class="cls-1" d="M710.79,236.66l.36-73.64,8.62,0-.15,29.66h.21q3.54-6.16,9.08-6.14a9.66,9.66,0,0,1,7.6,3.64q3.07,3.63,3,10.19l-.18,36.39-8.61,0,.17-35.32c0-4.7-1.47-7.05-4.48-7.07a6.06,6.06,0,0,0-4.72,2.56c-1.43,1.71-2.14,2.75-2.15,3.11l-.18,36.66Z"/><path d="M740.14,237.57l-10.15,0,.17-36.09c0-6.27-2.79-6.28-3.72-6.29a5.25,5.25,0,0,0-4.12,2.28,11.9,11.9,0,0,0-2,2.7l-.18,37.36L710,237.42l.37-75.17,10.15.05-.14,28.14c2.3-3.08,5.13-4.63,8.46-4.63h0a10.44,10.44,0,0,1,8.19,3.91c2.16,2.55,3.25,6.15,3.22,10.7Zm-8.6-1.58,7.07,0,.17-35.61c0-4.17-.94-7.43-2.86-9.69a8.85,8.85,0,0,0-7-3.37h0c-3.41,0-6.14,1.88-8.36,5.76l-.22.39h-1.43l.14-29.66-7.07,0-.36,72.09,7.08,0,.17-35.9c0-.43.18-1,2.32-3.59a6.85,6.85,0,0,1,5.29-2.84h0c2.42,0,5.29,1.38,5.26,7.84Z"/><path class="cls-1" d="M773.58,226l-.19,8.5a14.41,14.41,0,0,1-10.16,4.08q-7.43-.16-11.36-6.93t-3.67-19.25q.27-12.15,4-18.83T762.33,187q13.35.3,12.46,28l-18-.41q-.36,15.89,8.34,16.07Q769.82,230.72,773.58,226ZM756.8,208.08l9.53.22q.3-13.68-4.65-13.78Q757.11,194.41,756.8,208.08Z"/><path d="M763.54,239.32h-.32c-5.22-.11-9.26-2.57-12-7.31s-4-11.22-3.77-19.65c.18-8.2,1.56-14.66,4.1-19.2,2.62-4.7,6.29-7,10.82-6.93a10.59,10.59,0,0,1,7.72,3.33c4.11,4.34,5.9,12.65,5.5,25.42l0,.76-18-.4c0,4.76.57,8.39,1.83,10.82a6.22,6.22,0,0,0,5.76,3.69c2.91.08,5.49-1.36,7.86-4.36l1.42-1.81-.24,11.14-.25.22A15.26,15.26,0,0,1,763.54,239.32Zm-1.48-51.56c-3.87,0-6.88,2-9.19,6.14-2.41,4.32-3.72,10.54-3.9,18.48-.18,8.14,1,14.48,3.56,18.84s6,6.45,10.72,6.55a13.59,13.59,0,0,0,9.38-3.66l.13-6.07a10.37,10.37,0,0,1-7.67,3.34,7.75,7.75,0,0,1-7.1-4.52c-1.44-2.79-2.11-6.93-2-12.33v-.77l18,.4c.29-11.75-1.42-19.67-5.1-23.54a9,9,0,0,0-6.64-2.86Zm5,21.32L756,208.84l0-.77a35.1,35.1,0,0,1,1.42-10.47c.93-2.6,2.37-3.94,4.25-3.85s3.46,1.39,4.35,4c.8,2.37,1.15,5.92,1.05,10.54Zm-9.49-1.75,8,.18a29.62,29.62,0,0,0-1-9.25c-1-2.93-2.45-3-2.93-3s-1.73,0-2.76,2.83A31.81,31.81,0,0,0,757.59,207.33Z"/><path class="cls-1" d="M810.39,260.78l-.49-8.71c1.78.25,3.17.41,4.18.47,2.68.16,4.46-.36,5.32-1.56s1.41-3.67,1.64-7.39l4.74-77.54,9.45.58-4.64,76q-1.2,19.66-15.76,18.78A28.69,28.69,0,0,1,810.39,260.78Z"/><path d="M816.08,262.24c-.43,0-.86,0-1.3,0a29.05,29.05,0,0,1-4.56-.67l-.57-.13-.57-10.23.93.13c1.79.26,3.14.41,4.11.47,2.4.14,4-.27,4.66-1.24.53-.74,1.22-2.56,1.49-7l4.79-78.31,11,.68-4.69,76.79C830.57,255.67,825.43,262.24,816.08,262.24Zm-5-2.09a26.31,26.31,0,0,0,3.74.51c9.3.55,14.17-5.34,15-18.05l4.6-75.26-7.92-.48-4.69,76.76c-.24,3.91-.82,6.46-1.78,7.8s-3,2.07-6,1.88c-.84-.05-1.93-.17-3.31-.35Z"/><path class="cls-1" d="M873,234.24l-.52,6.5q-4.32,3.27-7,3.06-4.8-.39-5.82-6.62-5.22,6-9.82,5.64c-2.53-.2-4.65-1.61-6.37-4.21a13.78,13.78,0,0,1-2.17-8.89,13.38,13.38,0,0,1,4.79-9.45q4.33-3.71,15.31-8.93l.37-4.67q.51-6.33-4.57-6.73t-12.89,7l.79-9.87q7-5.76,13.48-5.24a13,13,0,0,1,8.87,4.27,12.5,12.5,0,0,1,3,9.85l-2.19,27.48c-.16,1.89.21,2.88,1.11,2.95C869.94,236.43,871.13,235.72,873,234.24Zm-13-4.44,1-12.56q-10.58,5.32-11.1,11.86a6.32,6.32,0,0,0,.86,4,3.65,3.65,0,0,0,2.87,1.77,5.17,5.17,0,0,0,4.27-2.12C859.2,231.26,859.9,230.27,859.94,229.8Z"/><path d="M865.82,244.58h-.39c-3.17-.26-5.25-2.19-6.2-5.76-3.27,3.41-6.44,5-9.44,4.78-2.77-.22-5.11-1.76-6.95-4.55a14.62,14.62,0,0,1-2.3-9.38,14.17,14.17,0,0,1,5.06-10c2.88-2.46,7.94-5.44,15.08-8.85l.33-4.23c.4-5-2-5.76-3.87-5.91-3.21-.24-7.34,2-12.29,6.81l-1.46,1.41,1-12.23.26-.21c4.83-3.95,9.55-5.77,14-5.41a13.74,13.74,0,0,1,9.38,4.52A13.34,13.34,0,0,1,871.25,206l-2.2,27.47a4.4,4.4,0,0,0,.12,1.82c.11.28.21.29.29.3s.67-.09,3-2l1.39-1.11-.69,8.61-.27.21C870.05,243.52,867.72,244.58,865.82,244.58Zm-5.65-9.15.26,1.62c.62,3.8,2.3,5.75,5.12,6,1.51.12,3.58-.79,6.16-2.7l.36-4.43c-1.6,1.14-2.27,1.29-2.73,1.26a1.84,1.84,0,0,1-1.61-1.29,5.79,5.79,0,0,1-.21-2.49l2.19-27.48a11.83,11.83,0,0,0-2.82-9.27,12.27,12.27,0,0,0-8.36-4c-4-.32-8.26,1.31-12.68,4.86l-.61,7.57c4.7-4.22,8.66-6.14,12-5.87,2.67.21,5.75,1.7,5.28,7.57l-.41,5.11-.4.19c-7.22,3.44-12.31,6.41-15.13,8.82a12.66,12.66,0,0,0-4.53,8.92,13,13,0,0,0,2,8.41c1.59,2.41,3.48,3.68,5.78,3.86,2.8.23,5.89-1.59,9.18-5.38Zm-6.28.26h-.39a4.4,4.4,0,0,1-3.45-2.12,7.11,7.11,0,0,1-1-4.52c.37-4.63,4.25-8.83,11.52-12.48l1.22-.62-1.11,13.92c0,.5-.34,1.26-2.28,3.44A6.09,6.09,0,0,1,853.89,235.69Zm6.17-17.12c-6,3.23-9.15,6.79-9.45,10.59a5.59,5.59,0,0,0,.73,3.56,2.88,2.88,0,0,0,2.29,1.42c1.25.11,2.44-.51,3.64-1.86,1.68-1.89,1.88-2.45,1.9-2.55Z"/><path class="cls-1" d="M903.77,236.85l-.84,8.19a15.43,15.43,0,0,1-8.73,1.82q-7.44-.77-11.7-8.39t-3.13-18.61q1.17-11.46,6.84-18.24t13.22-6a19.84,19.84,0,0,1,7.53,2.55l-.89,8.79q-3.62-2.8-6.13-3.06-4.56-.46-7.74,4t-4,12.61q-.81,8,1.65,13t7.39,5.49Q900.12,239.24,903.77,236.85Z"/><path d="M895.61,247.7a14.87,14.87,0,0,1-1.49-.08c-5.2-.53-9.34-3.48-12.29-8.78s-4-11.61-3.23-19.06c.8-7.76,3.16-14,7-18.66s8.61-6.81,13.89-6.28a20.83,20.83,0,0,1,7.83,2.65l.44.25-1.09,10.67-1.1-.85c-2.28-1.77-4.21-2.75-5.73-2.91-2.76-.28-5.06.92-7,3.68s-3.35,7-3.88,12.24,0,9.37,1.57,12.54,3.75,4.76,6.78,5.07c1.74.17,3.77-.49,6.05-2l1.35-.89-1,10.22-.38.19A16.7,16.7,0,0,1,895.61,247.7Zm2.28-51.4c-4.19,0-7.82,1.91-11.09,5.81-3.66,4.38-5.9,10.38-6.66,17.83-.73,7.12.29,13.23,3,18.15s6.36,7.52,11.1,8a14.5,14.5,0,0,0,7.93-1.55l.64-6.24a10,10,0,0,1-5.7,1.41c-3.55-.36-6.25-2.35-8-5.92s-2.28-7.94-1.73-13.38,2-9.9,4.16-13,5.12-4.67,8.45-4.32a12,12,0,0,1,5.42,2.4l.7-6.92a18.42,18.42,0,0,0-6.79-2.22A14.44,14.44,0,0,0,897.89,196.3Z"/><path class="cls-1" d="M908.68,247.06,917.91,174l8.55,1.08-9.24,73.06Zm22.61,2.86-10.06-26.61,15.17-22,9,1.13L929.5,223.81l11.33,27.31Z"/><path d="M942.05,252.05l-11.31-1.43L921,224.76,917.89,249l-10.07-1.27,9.42-74.59,10.08,1.27-6,47.4L936,200.53l10.72,1.35-16.37,22Zm-10.2-2.84,7.76,1-11-26.49,15.32-20.62-7.17-.91-14.68,21.24Zm-22.31-2.82,7,.89,9.05-71.53-7-.89Z"/><path class="cls-1" d="M941.81,277.9l11.58-74.25L961.9,205l-.53,3.46.21,0a8.46,8.46,0,0,1,7.95-3.12q5.85.92,8.73,8.83t1.15,19q-1.71,11-6.69,17.24t-11.05,5.33q-4.14-.65-6.62-5.39l-.21,0-4.52,28.94Zm18.29-61.38-4,25.58q2.25,4.83,5.23,5.29,6.75,1.05,9.37-15.7,2.71-17.44-4.84-18.63a4.59,4.59,0,0,0-3.9,1.27C960.79,215.4,960.17,216.13,960.1,216.52Z"/><path d="M951,280.11l-10-1.57,11.82-75.77,10,1.57-.35,2.24a8.91,8.91,0,0,1,7.22-2c4.18.65,7.32,3.79,9.33,9.32,2,5.38,2.36,11.89,1.19,19.36s-3.46,13.32-6.85,17.6-7.45,6.29-11.77,5.61a9.17,9.17,0,0,1-6.24-4.21Zm-8.28-2.85,7,1.09,4.51-28.94,1.36.22.18.34c1.55,3,3.53,4.59,6.06,5,3.78.59,7.16-1.06,10.32-5.05s5.43-9.74,6.54-16.88.75-13.46-1.12-18.59-4.49-7.76-8.12-8.33c-2.77-.43-5.14.51-7.26,2.88l-.28.31-1.39-.22.54-3.46-7-1.09Zm19.48-29a6.16,6.16,0,0,1-.95-.07c-2.25-.35-4.2-2.28-5.81-5.72l-.09-.21,4-25.82c.07-.44.38-1.07,2.11-2.64A5.31,5.31,0,0,1,966,212.3c5.52.86,7.36,7.42,5.48,19.51C969.75,242.83,966.7,248.22,962.17,248.22ZM956.91,242c1.35,2.81,2.88,4.37,4.55,4.63,4,.63,6.83-4.44,8.48-15.05,1.73-11.07.32-17-4.19-17.74a3.75,3.75,0,0,0-3.26,1.08,7,7,0,0,0-1.63,1.75Z"/><path class="cls-1" d="M996.93,261.83q-6.93-1.32-9.69-8.83t-.54-19.3q2.24-11.79,7.56-17.8t12.25-4.69q6.93,1.31,9.72,8.85t.56,19.34q-2.24,11.79-7.58,17.76T996.93,261.83Zm8-42.6q-6.27-1.18-9.54,16.11t3.22,18.47q6.27,1.19,9.53-16.06T1004.91,219.23Z"/><path d="M999.37,262.83a13.57,13.57,0,0,1-2.58-.25c-4.88-.92-8.34-4.05-10.28-9.31s-2.08-11.75-.57-19.71,4.11-14.08,7.74-18.17,8.09-5.86,13-4.94,8.34,4.07,10.3,9.34,2.1,11.78.59,19.75-4.12,14.07-7.76,18.14C1006.72,261.1,1003.22,262.83,999.37,262.83Zm4.69-51.09c-3.42,0-6.45,1.54-9.23,4.67-3.44,3.88-5.92,9.75-7.38,17.43s-1.28,14,.51,18.9,4.74,7.5,9.12,8.33h0c4.37.83,8.15-.62,11.56-4.42s5.94-9.71,7.39-17.4,1.28-14.05-.52-18.92-4.77-7.54-9.14-8.36A12.39,12.39,0,0,0,1004.06,211.74Zm-4.66,42.92a5.28,5.28,0,0,1-1-.09c-4.86-.92-6.12-7.26-3.83-19.37s5.72-17.62,10.45-16.72h0c4.86.92,6.11,7.27,3.82,19.42-1.1,5.81-2.49,10.14-4.11,12.88C1003.24,253.36,1001.43,254.66,999.4,254.66Zm4.76-34.73c-4.19,0-6.67,8.36-8,15.56-2.07,10.93-1.2,16.84,2.6,17.56,1.75.34,3.29-.67,4.71-3.05,1.54-2.59,2.85-6.76,3.92-12.39,2.08-11,1.2-16.9-2.59-17.62h0A3.23,3.23,0,0,0,1004.16,219.93Z"/><path class="cls-1" d="M1040.5,261.18l-1.65,7.47a19.5,19.5,0,0,1-7.81.2q-8.83-1.94-6.49-12.6l6.83-31-5.47-1.2.16-.74a180.16,180.16,0,0,0,17.31-16l.74.17-2.71,12.3,7.83,1.72-1.62,7.36-7.83-1.72-6,27.18q-.84,3.78-.42,5.28a2.75,2.75,0,0,0,2.31,1.91A11.46,11.46,0,0,0,1040.5,261.18Z"/><path d="M1034.06,269.92a15,15,0,0,1-3.19-.31c-6.36-1.4-8.74-5.95-7.07-13.53l6.66-30.22-5.47-1.2.39-1.76.21-.17a183.85,183.85,0,0,0,17.24-16l.3-.31,1.91.42-2.71,12.3,7.83,1.73-2,8.86-7.84-1.72-5.82,26.43c-.65,3-.59,4.31-.43,4.9s.44,1.08,1.73,1.37a11.14,11.14,0,0,0,4.48-.32l1.18-.27-2,9.15-.5.09A26,26,0,0,1,1034.06,269.92Zm-7-46.39,5.23,1.16-7,31.73c-1.47,6.66.46,10.48,5.89,11.68a18.11,18.11,0,0,0,7-.12l1.28-5.81a10.31,10.31,0,0,1-4,.08,3.45,3.45,0,0,1-2.88-2.45c-.32-1.13-.18-3,.41-5.65l6.15-27.94,7.83,1.72,1.29-5.85-7.83-1.73,2.55-11.59A181.29,181.29,0,0,1,1027.06,223.53Z"/><path class="cls-1" d="M1048.81,272.64a6,6,0,0,1-4.42-7.29,5.7,5.7,0,0,1,2.73-3.68,5.87,5.87,0,0,1,4.55-.69,6,6,0,0,1,4.38,7.23,5.84,5.84,0,0,1-2.71,3.71A5.67,5.67,0,0,1,1048.81,272.64Zm9.31-61.51q3.17-12.9,8.6-11.58t2.33,14.26a189.32,189.32,0,0,1-8,24.15q-5.43,13.68-7,13.3t0-15A187.09,187.09,0,0,1,1058.12,211.13Z"/><path d="M1050.28,273.6a6.67,6.67,0,0,1-1.65-.21h0a6.82,6.82,0,0,1-5-8.22,6.77,6.77,0,0,1,13.16,3.22,6.62,6.62,0,0,1-3.06,4.19A6.5,6.5,0,0,1,1050.28,273.6Zm-1.29-1.71a4.93,4.93,0,0,0,3.94-.62,5.07,5.07,0,0,0,2.37-3.24,5,5,0,0,0-.6-3.94,5.25,5.25,0,0,0-7.19-1.76,4.93,4.93,0,0,0-2.37,3.21,5.27,5.27,0,0,0,3.85,6.35Zm5.2-19.84a1.65,1.65,0,0,1-.32,0c-.92-.23-2.17-.53-.59-15.85a190.44,190.44,0,0,1,4.09-25.21h0c1.09-4.45,2.35-7.59,3.86-9.63s3.54-3,5.68-2.52,3.46,2.17,3.9,4.87c.41,2.5.08,5.88-1,10.33a189.71,189.71,0,0,1-8,24.24C1057,250.29,1055.33,252.05,1054.19,252.05Zm11.55-51.85a4.18,4.18,0,0,0-3.27,2c-1.36,1.84-2.58,4.89-3.6,9.08h0a188.84,188.84,0,0,0-4.06,25c-1,10.19-.77,13.14-.52,14,.62-.63,2.26-3.1,6-12.65a188.58,188.58,0,0,0,8-24c1-4.18,1.36-7.45,1-9.71-.34-2.07-1.24-3.25-2.75-3.62A3.73,3.73,0,0,0,1065.74,200.2Z"/></svg>