<svg id="Capa_1" data-name="Capa 1" xmlns="http://www.w3.org/2000/svg" xmlns:xlink="http://www.w3.org/1999/xlink" viewBox="0 0 232.31 232.38"><defs><style>.cls-1{fill:url(#Degradado_sin_nombre_3);}</style><linearGradient id="Degradado_sin_nombre_3" x1="152.57" y1="150.57" x2="-0.85" y2="5.29" gradientTransform="translate(232.26 232.26) rotate(180)" gradientUnits="userSpaceOnUse"><stop offset="0" stop-color="#bd955d"/><stop offset="0.35" stop-color="#966f40"/><stop offset="0.45" stop-color="#c99b61"/><stop offset="0.54" stop-color="#f0bd7a"/><stop offset="0.59" stop-color="#ffca84"/><stop offset="0.68" stop-color="#edbb79"/><stop offset="0.86" stop-color="#c0935b"/><stop offset="1" stop-color="#966f40"/></linearGradient></defs><path class="cls-1" d="M228.82,162.75v65.73h0s0,0,0,0a0,0,0,0,0,0,0s0,0,0,0v0l0,0v0h0v0l0,0,0,0h0l0,0h0l0,0H162.69a.43.43,0,1,1,0-.85h62.5l-60.38-16.18a.42.42,0,0,1,.11-.82H165l60.38,16.18L171.28,196a.42.42,0,0,1-.16-.57.42.42,0,0,1,.37-.21.41.41,0,0,1,.21.05l54.13,31.26-44.2-44.2a.44.44,0,0,1,0-.6.44.44,0,0,1,.3-.12.42.42,0,0,1,.3.12l44.2,44.2-31.25-54.13a.42.42,0,0,1,.15-.58.41.41,0,0,1,.21-.05.42.42,0,0,1,.37.21l31.25,54.13L211,165.1a.43.43,0,0,1,.3-.52h.11a.42.42,0,0,1,.41.31L228,225.26V162.75a.42.42,0,0,1,.42-.42A.42.42,0,0,1,228.82,162.75ZM55.62,228.89h89a.42.42,0,0,0,.42-.43,83.42,83.42,0,0,1,83.33-83.32.42.42,0,0,0,.42-.42v-89a.42.42,0,0,0-.42-.42.42.42,0,0,0-.42.42V144.3A84.27,84.27,0,0,0,144.23,228H55.62a.43.43,0,1,0,0,.85ZM.05,228.46a3.62,3.62,0,0,1,1.8-3.33,4.46,4.46,0,0,1,4.4,0,4,4,0,0,1,0,6.67,4.48,4.48,0,0,1-4.4,0A3.62,3.62,0,0,1,.05,228.46Zm.84,0a2.83,2.83,0,0,0,1.39,2.61,3.49,3.49,0,0,0,1.77.46,3.53,3.53,0,0,0,1.78-.46,2.84,2.84,0,0,0,1.39-2.6h0a2.83,2.83,0,0,0-1.39-2.6,3.67,3.67,0,0,0-3.55,0A2.81,2.81,0,0,0,.89,228.46Zm30.26,0A3.62,3.62,0,0,1,33,225.13a4.46,4.46,0,0,1,4.4,0,4,4,0,0,1,0,6.67,4.48,4.48,0,0,1-4.4,0A3.63,3.63,0,0,1,31.15,228.46Zm.85,0a2.81,2.81,0,0,0,1.39,2.61,3.64,3.64,0,0,0,3.54,0,2.8,2.8,0,0,0,1.39-2.6h0a2.8,2.8,0,0,0-1.38-2.6,3.67,3.67,0,0,0-3.55,0A2.79,2.79,0,0,0,32,228.46ZM225.06,6.32a4.48,4.48,0,0,1,0-4.4A3.62,3.62,0,0,1,228.33.11h.14a3.61,3.61,0,0,1,3.26,1.81,4.48,4.48,0,0,1,0,4.4,3.61,3.61,0,0,1-3.33,1.81A3.72,3.72,0,0,1,225.06,6.32Zm.73-.43a2.79,2.79,0,0,0,2.6,1.39h0A2.83,2.83,0,0,0,231,5.9a3.67,3.67,0,0,0,0-3.55,3.14,3.14,0,0,0-5.21,0A3.65,3.65,0,0,0,225.79,5.89ZM231.73,33a4.48,4.48,0,0,1,0,4.4,4,4,0,0,1-6.67,0,4.48,4.48,0,0,1,0-4.4,3.62,3.62,0,0,1,3.27-1.81h.14A3.61,3.61,0,0,1,231.73,33Zm-.73.42a2.79,2.79,0,0,0-2.6-1.38,2.73,2.73,0,0,0-2.61,1.38,3.67,3.67,0,0,0,0,3.55,2.81,2.81,0,0,0,2.6,1.39h0A2.75,2.75,0,0,0,231,37,3.67,3.67,0,0,0,231,33.45Z"/></svg>