<svg id="Capa_1" data-name="Capa 1" xmlns="http://www.w3.org/2000/svg" xmlns:xlink="http://www.w3.org/1999/xlink" viewBox="0 0 191.65 167.11"><defs><style>.cls-1{fill:url(#Nueva_muestra_de_degradado_1);}</style><linearGradient id="Nueva_muestra_de_degradado_1" x1="47.91" y1="131.47" x2="143.74" y2="35.64" gradientTransform="matrix(-1, 0, 0, 1, 191.65, 0)" gradientUnits="userSpaceOnUse"><stop offset="0" stop-color="#bd955d"/><stop offset="0.28" stop-color="#966f40"/><stop offset="0.43" stop-color="#c99b61"/><stop offset="0.56" stop-color="#f0bd7a"/><stop offset="0.63" stop-color="#ffca84"/><stop offset="0.71" stop-color="#edbb79"/><stop offset="0.87" stop-color="#c0935b"/><stop offset="1" stop-color="#966f40"/></linearGradient></defs><path class="cls-1" d="M25.55,109.11,37.82,96.84l70.28,70.27,83.55-83.55L108.1,0,37.82,70.27,25.55,58,0,83.56ZM38.83,95.83,50.1,84.56l55.14,55.15,56.15-56.15L105.24,27.4,50.1,82.55,38.83,71.28,108.1,2l81.54,81.54L108.1,165.09ZM49.09,83.56,37.82,94.82,26.56,83.56,37.82,72.29Zm56.15-54.14,54.13,54.14-54.13,54.13L51.1,83.56ZM36.82,95.83,25.55,107.09,2,83.56,25.55,60,36.81,71.28,24.54,83.56Z"/></svg>