<svg id="Capa_1" data-name="Capa 1" xmlns="http://www.w3.org/2000/svg" viewBox="0 0 338.5 180.79"><defs><style>.cls-1{fill:#302929;}.cls-2{fill:#9d895f;}</style></defs><path class="cls-1" d="M0,101.45S43.44.8,177.38,0C302.29-.74,338.5,101.45,338.5,101.45s-25.87,77.25-162.6,79.34S0,101.45,0,101.45Z"/><path class="cls-2" d="M142.17,104.2H131.61V91.71H120V104.2H109.42V71.29H120v12h11.63v-12h10.56Z"/><path class="cls-2" d="M160.84,76h-9.53V69.52h9.53Zm0,28.21h-9.53V79h9.53Z"/><path class="cls-2" d="M197.71,74.21a8.26,8.26,0,0,1-.4,2.68,5.48,5.48,0,0,1-1.16,1.94,6.47,6.47,0,0,1-1.83,1.34,12.8,12.8,0,0,1-2.43.89,7.78,7.78,0,0,1,2.18,2.45,6,6,0,0,1,.79,3,7.25,7.25,0,0,1-.87,3.65,7.4,7.4,0,0,1-2.32,2.53,10.62,10.62,0,0,1-3.39,1.47,16.7,16.7,0,0,1-4.05.48h-3.65a5,5,0,0,0-2.33.39,1.17,1.17,0,0,0-.68,1,1.25,1.25,0,0,0,.13.57,1.12,1.12,0,0,0,.47.47,2.81,2.81,0,0,0,.92.31,7.65,7.65,0,0,0,1.49.12h8.62a10.59,10.59,0,0,1,3.8.61,7.17,7.17,0,0,1,2.65,1.68,6.63,6.63,0,0,1,1.55,2.56,9.85,9.85,0,0,1,.51,3.23,7.74,7.74,0,0,1-.87,3.74,8.18,8.18,0,0,1-2.32,2.71,10.72,10.72,0,0,1-3.39,1.66,14.48,14.48,0,0,1-4,.56H173a6.48,6.48,0,0,1-2.48-.48,6.62,6.62,0,0,1-2-1.31,6.11,6.11,0,0,1-1.36-1.95,5.82,5.82,0,0,1-.51-2.43,5.28,5.28,0,0,1,.33-1.86,5.91,5.91,0,0,1,.89-1.59,6.8,6.8,0,0,1,1.28-1.29,7.2,7.2,0,0,1,1.52-.91,6,6,0,0,1-1.81-1.93,4.88,4.88,0,0,1-.66-2.51,4.52,4.52,0,0,1,.37-1.82,5.63,5.63,0,0,1,1-1.59,6.5,6.5,0,0,1,1.54-1.24,7.43,7.43,0,0,1,1.89-.77,13.08,13.08,0,0,1-1.61-1.22,8.6,8.6,0,0,1-1.29-1.43,7.09,7.09,0,0,1-.85-1.61,5.06,5.06,0,0,1-.31-1.76,7,7,0,0,1,1-3.92,7.62,7.62,0,0,1,2.81-2.52A13.19,13.19,0,0,1,177,78.77a29.93,29.93,0,0,1,5-.4c1,0,1.76,0,2.4.07s1.22.12,1.75.21A11.45,11.45,0,0,0,188.33,77a8.57,8.57,0,0,0,1.11-1.4,2.92,2.92,0,0,0,.44-1.36Zm-19.51,30a2.72,2.72,0,0,0-1.77.59,2,2,0,0,0-.73,1.7,2.29,2.29,0,0,0,.73,1.79,2.53,2.53,0,0,0,1.77.67h7.45a2.67,2.67,0,0,0,1.8-.65,2.18,2.18,0,0,0,.75-1.76,2.1,2.1,0,0,0-.75-1.73,2.8,2.8,0,0,0-1.8-.61Zm2.27-20.67a3.09,3.09,0,0,0-1.14.59,2.77,2.77,0,0,0-.75,1,3.2,3.2,0,0,0-.29,1.39,2.89,2.89,0,0,0,1,2.38,4.06,4.06,0,0,0,2.65.77,4.25,4.25,0,0,0,2.68-.77,3.36,3.36,0,0,0,0-4.76,4.25,4.25,0,0,0-2.68-.77A5.31,5.31,0,0,0,180.47,83.53Z"/><path class="cls-2" d="M213.11,81.57a10.74,10.74,0,0,1,3.57-2.36,11.31,11.31,0,0,1,4.32-.84,10.7,10.7,0,0,1,3.9.64,7.06,7.06,0,0,1,2.75,1.86,7.86,7.86,0,0,1,1.62,3,13.63,13.63,0,0,1,.54,4V104.2H220.3V89a4,4,0,0,0-.8-2.59,2.93,2.93,0,0,0-2.42-1,4.07,4.07,0,0,0-1.62.32,3.66,3.66,0,0,0-1.27.86,3.75,3.75,0,0,0-.8,1.27,4.14,4.14,0,0,0-.28,1.52V104.2H203.6V69.52h9.51Z"/></svg>