<?xml version="1.0" encoding="utf-8"?>

<svg version="1.1" id="Capa_1"  
	 xmlns="http://www.w3.org/2000/svg" xmlns:xlink="http://www.w3.org/1999/xlink" x="0px" y="0px" viewBox="0 0 60.56 49.35"
	 xml:space="preserve" >
	 <path d="M0,43.8c6.77,0.61,12.77-1.04,18.22-5.12c-5.69-0.51-9.48-3.38-11.6-8.69c1.9,0.23,3.65,0.26,5.5-0.23
	 c-7.46-1.91-10.07-8.55-9.74-12.34c1.68,0.85,3.42,1.41,5.49,1.46c-3.12-2.27-4.91-5.18-5.37-8.82c-0.35-2.72,0.2-5.3,1.6-7.75
	 c6.73,7.93,15.24,12.3,25.56,13c-0.04-1.25-0.15-2.43-0.12-3.61c0.15-5.08,4.07-9.96,9-11.22c4.62-1.18,8.68-0.14,12.15,3.14
	 c0.27,0.25,0.49,0.29,0.84,0.21c2.41-0.54,4.69-1.38,6.84-2.6c0.14-0.08,0.28-0.14,0.51-0.25c-0.42,1.46-1.07,2.72-2,3.79
	 c-0.93,1.06-1.99,1.99-2.98,2.96c2.21-0.26,4.4-0.92,6.54-1.8c0.04,0.05,0.09,0.1,0.13,0.15c-1,1.17-1.95,2.39-3.02,3.5
	 c-0.86,0.89-1.88,1.63-2.8,2.47c-0.19,0.17-0.34,0.49-0.34,0.73C54.4,25.6,49.34,35.91,38.9,43.43c-4.42,3.18-9.48,4.9-14.88,5.6
	 c-5.09,0.66-10.1,0.33-15.03-1.09c-3.09-0.89-6-2.21-8.73-3.92C0.2,43.98,0.15,43.92,0,43.8z"/>


</svg>
