<?xml version="1.0" encoding="utf-8"?>

<svg version="1.1" id="Capa_1" xmlns="http://www.w3.org/2000/svg" xmlns:xlink="http://www.w3.org/1999/xlink" x="0px" y="0px" viewBox="0 0 82.26 49.35"
	 style="enable-background:new 0 0 82.26 49.35;" xml:space="preserve">
		<path class="st77" d="M0.01,24.9c0-6.05,0-12.1,0-18.14c0-3,1.43-5.2,4.08-6.3c2.33-0.97,5.16-0.34,7.15,1.61
			C16.62,7.37,22.01,12.68,27.39,18c0.93,0.92,1.09,0.91,1.87-0.15C32.97,12.8,36.7,7.76,40.39,2.69c1.28-1.76,2.97-2.64,5.1-2.65
			c10.27-0.02,20.53-0.02,30.8,0c2.95,0.01,5.41,2.08,5.88,4.84c0.46,2.69-1.09,5.45-3.72,6.39c-0.8,0.29-1.7,0.38-2.56,0.38
			c-5.37,0.03-10.75,0.01-16.12,0.04c-0.49,0-0.97,0.25-1.46,0.38c0.22,0.46,0.37,0.98,0.69,1.35c1.8,2.16,3.65,4.27,5.47,6.42
			c2.78,3.29,2.79,6.38,0.12,9.57c-1.89,2.26-3.83,4.5-5.71,6.77c-0.26,0.31-0.37,0.76-0.54,1.14c0.43,0.14,0.86,0.39,1.29,0.39
			c5.6,0.03,11.2,0,16.79,0.03c2.3,0.01,4.08,1.09,5.18,3.08c1.96,3.55-0.85,8.1-5.08,8.31c-0.67,0.03-1.35,0.01-2.02,0.01
			c-8.89,0-17.78,0.03-26.67-0.03c-1.38-0.01-2.83-0.24-4.11-0.73c-2.93-1.13-4.14-4.26-2.64-7.02c1.24-2.28,2.77-4.43,4.29-6.55
			c2.24-3.13,4.57-6.2,6.88-9.28c0.44-0.59,0.48-1.06-0.01-1.64c-2.08-2.4-4.12-4.84-6.19-7.25c-0.8-0.93-1.05-0.91-1.8,0.09
			c-3.34,4.46-6.66,8.92-9.99,13.38c-0.27,0.36-0.59,0.69-0.82,1.07c-1.93,3.33-6.91,2.83-9.06,0.61c-3.28-3.4-6.69-6.67-10.05-10
			c-0.2-0.2-0.39-0.41-0.61-0.58c-0.58-0.43-1.03-0.24-1.1,0.48c-0.03,0.33-0.02,0.67-0.02,1.01c0,6.55,0.01,13.11-0.01,19.66
			c-0.01,3.35-2.3,6.2-5.43,6.85C3.44,50,0.03,47.28,0.01,43.46C-0.01,37.28,0.01,31.09,0.01,24.9z"/>
</svg>
