<?xml version="1.0" encoding="utf-8"?>

<svg version="1.1" id="Capa_1" xmlns="http://www.w3.org/2000/svg" xmlns:xlink="http://www.w3.org/1999/xlink" x="0px" y="0px" viewBox="0 0 64.83 49.33" style="enable-background:new 0 0 64.83 49.33;" xml:space="preserve">

	<path class="st77" d="M0,38.1c0-1.77,0-3.55,0-5.32c0.04-0.27,0.08-0.53,0.11-0.8c0.23-1.99,0.36-3.99,0.7-5.96
				c1.35-7.83,4.44-14.95,8.82-21.54c0.15-0.23,0.4-0.44,0.65-0.55c4.01-1.83,8.19-3.1,12.52-3.9c0.35-0.07,0.55,0.01,0.7,0.34
				c0.4,0.84,0.87,1.64,1.22,2.5c0.2,0.49,0.45,0.57,0.95,0.53c1.93-0.19,3.86-0.46,5.8-0.44c2.59,0.02,5.17,0.27,7.76,0.45
				c0.44,0.03,0.67-0.04,0.85-0.48c0.37-0.87,0.83-1.7,1.24-2.56c0.15-0.33,0.36-0.39,0.71-0.33c4.27,0.78,8.39,2.04,12.34,3.82
				c0.34,0.15,0.68,0.43,0.88,0.74c7.34,10.94,10.54,22.95,9.32,36.11c-0.02,0.24-0.17,0.53-0.36,0.67
				c-4.77,3.49-9.96,6.14-15.6,7.91c-0.42,0.13-0.61,0.02-0.82-0.31c-0.77-1.23-1.56-2.45-2.33-3.69c-0.3-0.48-0.54-0.99-0.8-1.48
				c1.84-0.88,3.61-1.74,5.4-2.6c-0.77-1.1-1.17-1.22-2.16-0.79c-7.18,3.11-14.61,4.05-22.33,2.65c-3.08-0.56-6.05-1.49-8.92-2.75
				c-0.25-0.11-0.61-0.24-0.81-0.14c-0.4,0.19-0.72,0.54-1.25,0.95c1.94,0.94,3.72,1.8,5.65,2.73c-1.14,1.8-2.25,3.53-3.35,5.27
				c-0.23,0.36-0.49,0.21-0.77,0.12c-5.57-1.77-10.72-4.37-15.43-7.83c-0.23-0.17-0.39-0.52-0.44-0.81C0.13,39.77,0.08,38.93,0,38.1
				z M49.13,27.08c-0.17-0.8-0.25-1.63-0.51-2.39c-1.4-4.09-6.15-5.4-9.16-2.55c-2.74,2.6-2.76,7.33-0.04,9.95
				c2.24,2.15,5.53,2.11,7.71-0.11C48.45,30.63,49.01,28.97,49.13,27.08z M27.64,27.04c-0.27-0.99-0.41-2.03-0.83-2.95
				c-1.74-3.86-6.41-4.66-9.22-1.63c-2.44,2.64-2.31,7.14,0.29,9.63c2.23,2.13,5.48,2.1,7.66-0.09
				C26.89,30.65,27.46,28.98,27.64,27.04z" />

</svg>