<svg id="Capa_1" data-name="Capa 1" xmlns="http://www.w3.org/2000/svg" viewBox="0 0 338.5 180.79"><defs><style>.cls-1{fill:#302929;}.cls-2{fill:#9d895f;}</style></defs><path class="cls-1" d="M338.5,101.45S295.06.8,161.12,0C36.22-.74,0,101.45,0,101.45s25.87,77.25,162.6,79.34S338.5,101.45,338.5,101.45Z"/><path class="cls-2" d="M116.36,104.2V71.29h10.56v24.5h16.89v8.41Z"/><path class="cls-2" d="M168.9,79.19a12,12,0,0,1,4.5,2.46,11,11,0,0,1,2.87,4.12,17,17,0,0,1,0,11.6,11,11,0,0,1-2.87,4.14,12.1,12.1,0,0,1-4.5,2.46,21.31,21.31,0,0,1-11.71,0,12.14,12.14,0,0,1-4.49-2.46,10.86,10.86,0,0,1-2.86-4.14,17.32,17.32,0,0,1,0-11.6,10.87,10.87,0,0,1,2.86-4.12,12,12,0,0,1,4.49-2.46,21.31,21.31,0,0,1,11.71,0Zm-8,6a3.6,3.6,0,0,0-1.45,1.08,4.69,4.69,0,0,0-.83,1.69,8.59,8.59,0,0,0-.27,2.26V93a8.57,8.57,0,0,0,.27,2.25,4.56,4.56,0,0,0,.83,1.68A3.65,3.65,0,0,0,160.89,98a5.72,5.72,0,0,0,2.15.36,4.34,4.34,0,0,0,3.62-1.43A6.17,6.17,0,0,0,167.78,93V90.24a8.59,8.59,0,0,0-.27-2.26,4.42,4.42,0,0,0-.85-1.69,3.81,3.81,0,0,0-1.47-1.08,6.43,6.43,0,0,0-4.3,0Z"/><path class="cls-2" d="M216.42,104.2h-9.27l-3.93-14.06H203l-4,14.06h-9.29L180.54,79h10.23l3.83,14.93h.33l4-14.93h9.49l3.83,14.93h.32L216.42,79h9.27Z"/></svg>