<svg id="Capa_1" data-name="Capa 1" xmlns="http://www.w3.org/2000/svg" xmlns:xlink="http://www.w3.org/1999/xlink" viewBox="0 0 191.65 167.11"><defs><style>.cls-1{fill:url(#Nueva_muestra_de_degradado_1);}</style><linearGradient id="Nueva_muestra_de_degradado_1" x1="47.91" y1="131.47" x2="143.74" y2="35.64" gradientUnits="userSpaceOnUse"><stop offset="0" stop-color="#bd955d"/><stop offset="0.28" stop-color="#966f40"/><stop offset="0.43" stop-color="#c99b61"/><stop offset="0.56" stop-color="#f0bd7a"/><stop offset="0.63" stop-color="#ffca84"/><stop offset="0.71" stop-color="#edbb79"/><stop offset="0.87" stop-color="#c0935b"/><stop offset="1" stop-color="#966f40"/></linearGradient></defs><path class="cls-1" d="M191.65,83.56,166.1,58,153.83,70.27,83.56,0,0,83.56l83.56,83.55,70.27-70.27,12.27,12.27ZM83.56,165.09,2,83.56,83.56,2l69.26,69.26L141.56,82.55,86.41,27.4,30.26,83.56l56.15,56.15,55.15-55.15,11.26,11.27Zm70.27-92.8,11.26,11.27L153.83,94.82,142.57,83.56ZM140.55,83.56,86.41,137.69,32.28,83.56,86.41,29.42Zm26.56,0L154.84,71.28,166.1,60l23.54,23.54L166.1,107.09,154.84,95.83Z"/></svg>