<svg id="Capa_1" data-name="Capa 1" xmlns="http://www.w3.org/2000/svg" xmlns:xlink="http://www.w3.org/1999/xlink" viewBox="0 0 231.01 231.01"><defs><style>.cls-1{fill:#302929;}.cls-2{stroke-miterlimit:10;stroke-width:2.54px;fill:url(#Nueva_muestra_de_degradado_1);stroke:url(#Nueva_muestra_de_degradado_1-2);}.cls-3{fill:#9d895f;}</style><linearGradient id="Nueva_muestra_de_degradado_1" x1="81.97" y1="118.79" x2="151.06" y2="49.7" gradientUnits="userSpaceOnUse"><stop offset="0" stop-color="#bd955d"/><stop offset="0.28" stop-color="#966f40"/><stop offset="0.43" stop-color="#c99b61"/><stop offset="0.56" stop-color="#f0bd7a"/><stop offset="0.63" stop-color="#ffca84"/><stop offset="0.71" stop-color="#edbb79"/><stop offset="0.87" stop-color="#c0935b"/><stop offset="1" stop-color="#966f40"/></linearGradient><linearGradient id="Nueva_muestra_de_degradado_1-2" x1="84.48" y1="94.97" x2="156.43" y2="94.97" xlink:href="#Nueva_muestra_de_degradado_1"/></defs><circle class="cls-1" cx="115.51" cy="115.51" r="115.51"/><path class="cls-2" d="M155.16,64.68q-5.73,7.06-11,14.57A124.43,124.43,0,0,0,134.8,94.8a94.14,94.14,0,0,0-6.52,16.59,64.06,64.06,0,0,0-2.45,17.67v7.07H99.3a73.05,73.05,0,0,1,2-16.8,92.46,92.46,0,0,1,5.4-16.06,105.74,105.74,0,0,1,8.22-15.08,133.89,133.89,0,0,1,10.37-13.82H85.75V53.81h69.41Z"/><path class="cls-3" d="M105.73,192.66l8,11.13h-9.39l-4.05-6.72h-.16l-4.09,6.72h-9l8.22-11.32-7.41-10.05h9.47l3.4,5.66H101l3.4-5.66h8.89Z"/><path class="cls-3" d="M134.21,176.05a10,10,0,0,1,3.52,1.79,8.06,8.06,0,0,1,2.28,2.94,9.53,9.53,0,0,1,.81,4.08h-7.19v-.3a4.27,4.27,0,0,0-.23-1.39,3.18,3.18,0,0,0-.7-1.17,3.14,3.14,0,0,0-1.19-.79,4.64,4.64,0,0,0-1.69-.29,4.06,4.06,0,0,0-1.72.35,3.34,3.34,0,0,0-1.27,1,4.56,4.56,0,0,0-.78,1.54,6.87,6.87,0,0,0-.27,2v2.34a6.31,6.31,0,0,1,1.37-1,9.86,9.86,0,0,1,1.54-.65,10.28,10.28,0,0,1,1.55-.38,9.15,9.15,0,0,1,1.41-.12,13.05,13.05,0,0,1,3.86.56,9.23,9.23,0,0,1,3.13,1.63,7.74,7.74,0,0,1,2.11,2.68,8.39,8.39,0,0,1,.77,3.67,9.84,9.84,0,0,1-.83,4.14,8.48,8.48,0,0,1-2.37,3.06,10.75,10.75,0,0,1-3.73,1.89,17.66,17.66,0,0,1-4.89.64,15.68,15.68,0,0,1-5.29-.82,9.24,9.24,0,0,1-3.77-2.51,11,11,0,0,1-2.25-4.28,22.2,22.2,0,0,1-.75-6.13,27.68,27.68,0,0,1,.75-6.92,12,12,0,0,1,2.25-4.68,8.73,8.73,0,0,1,3.77-2.66,15.17,15.17,0,0,1,5.29-.84A16,16,0,0,1,134.21,176.05ZM126.8,191.9a4,4,0,0,0-1,2.94,4.06,4.06,0,0,0,1,2.94,3.88,3.88,0,0,0,2.92,1,4.13,4.13,0,0,0,3-1,3.78,3.78,0,0,0,1.05-2.91,4.09,4.09,0,0,0-1-3,3.93,3.93,0,0,0-2.94-1.05A4,4,0,0,0,126.8,191.9Z"/></svg>