<svg id="Capa_1" data-name="Capa 1" xmlns="http://www.w3.org/2000/svg" xmlns:xlink="http://www.w3.org/1999/xlink" viewBox="0 0 681.56 14.77"><defs><style>.cls-1{fill:url(#Degradado_sin_nombre_4);}</style><linearGradient id="Degradado_sin_nombre_4" y1="7.38" x2="681.56" y2="7.38" gradientUnits="userSpaceOnUse"><stop offset="0" stop-color="#966f40"/><stop offset="0.13" stop-color="#c0935b"/><stop offset="0.29" stop-color="#edbb79"/><stop offset="0.37" stop-color="#ffca84"/><stop offset="0.44" stop-color="#f0bd7a"/><stop offset="0.57" stop-color="#c99b61"/><stop offset="0.72" stop-color="#966f40"/><stop offset="1" stop-color="#bd955d"/></linearGradient></defs><path class="cls-1" d="M0,0H2.48V14.77H0ZM18.86,14.77h2.48V0H18.86Zm18.87,0h2.48V0H37.73Zm18.86,0h2.48V0H56.59Zm18.86,0h2.48V0H75.45Zm18.87,0H96.8V0H94.32Zm18.86,0h2.48V0h-2.48Zm18.86,0h2.48V0H132Zm18.87,0h2.48V0h-2.48Zm18.86,0h2.48V0h-2.48Zm18.86,0h2.48V0h-2.48Zm18.87,0H210V0H207.5Zm18.86,0h2.48V0h-2.48Zm18.86,0h2.48V0h-2.48Zm18.87,0h2.48V0h-2.48Zm18.86,0h2.48V0H283Zm18.86,0h2.48V0h-2.48Zm18.87,0h2.48V0h-2.48Zm18.86,0H342V0h-2.48Zm18.86,0h2.48V0H358.4Zm18.87,0h2.48V0h-2.48Zm18.86,0h2.48V0h-2.48Zm18.86,0h2.48V0H415Zm18.87,0h2.48V0h-2.48Zm18.86,0h2.48V0h-2.48Zm18.86,0h2.48V0h-2.48Zm18.87,0h2.48V0h-2.48Zm18.86,0h2.48V0h-2.48Zm18.86,0h2.48V0h-2.48Zm18.87,0h2.48V0H547Zm18.86,0h2.48V0H565.9Zm18.86,0h2.48V0h-2.48Zm18.87,0h2.48V0h-2.48Zm18.86,0H625V0h-2.48Zm18.86,0h2.48V0h-2.48Zm18.87,0h2.48V0h-2.48ZM679.08,0V14.77h2.48V0Z"/></svg>