<svg id="Capa_1" data-name="Capa 1" xmlns="http://www.w3.org/2000/svg" xmlns:xlink="http://www.w3.org/1999/xlink" viewBox="0 0 231.01 231.01"><defs><style>.cls-1{fill:#302929;}.cls-2{stroke-miterlimit:10;stroke-width:2.54px;fill:url(#Nueva_muestra_de_degradado_1);stroke:url(#Nueva_muestra_de_degradado_1-2);}.cls-3{fill:#9d895f;}</style><linearGradient id="Nueva_muestra_de_degradado_1" x1="71.96" y1="141.88" x2="177.2" y2="36.64" gradientUnits="userSpaceOnUse"><stop offset="0" stop-color="#bd955d"/><stop offset="0.28" stop-color="#966f40"/><stop offset="0.43" stop-color="#c99b61"/><stop offset="0.56" stop-color="#f0bd7a"/><stop offset="0.63" stop-color="#ffca84"/><stop offset="0.71" stop-color="#edbb79"/><stop offset="0.87" stop-color="#c0935b"/><stop offset="1" stop-color="#966f40"/></linearGradient><linearGradient id="Nueva_muestra_de_degradado_1-2" x1="38.07" y1="91.82" x2="192.49" y2="91.82" xlink:href="#Nueva_muestra_de_degradado_1"/></defs><circle class="cls-1" cx="115.51" cy="115.51" r="115.51"/><path class="cls-2" d="M78.84,93.49h23.72v15.77H78.84V133H63.06V109.26H39.34V93.49H63.06V69.82H78.84Zm112.38-32q-5.73,7.06-11,14.57a124.35,124.35,0,0,0-9.34,15.55,94.14,94.14,0,0,0-6.52,16.59,63.68,63.68,0,0,0-2.45,17.67V133H135.36a72.51,72.51,0,0,1,2-16.8,91.63,91.63,0,0,1,5.4-16.06A105.67,105.67,0,0,1,150.93,85,135.34,135.34,0,0,1,161.3,71.22H121.81V50.66h69.41Z"/><path class="cls-3" d="M89.14,190.11l6.74,9.35H88l-3.41-5.64h-.13L81,199.46H73.5L80.41,190l-6.23-8.44h8L85,186.26h.15L88,181.51h7.47Z"/><path class="cls-3" d="M113.26,176.16a8.55,8.55,0,0,1,2.83,1.42,6.4,6.4,0,0,1,1.8,2.22,7,7,0,0,1,.23,5.22,7.58,7.58,0,0,1-1.1,2,11.48,11.48,0,0,1-1.66,1.77c-.64.55-1.33,1.1-2.07,1.64s-1.51,1.07-2.31,1.61-1.61,1.09-2.42,1.67H118.8v5.74H99.41v-1.63a6.33,6.33,0,0,1,.24-1.78,6.77,6.77,0,0,1,.68-1.56,9.31,9.31,0,0,1,1-1.41c.4-.44.84-.88,1.31-1.31q2-1.77,3.66-3.06c1.11-.86,2.08-1.63,2.88-2.3a15.43,15.43,0,0,0,1.9-1.83,2.57,2.57,0,0,0,.68-1.64,2.69,2.69,0,0,0-.17-.93,2.19,2.19,0,0,0-.51-.8,2.49,2.49,0,0,0-.91-.55,3.79,3.79,0,0,0-1.33-.21,3.88,3.88,0,0,0-1.42.24,2.83,2.83,0,0,0-1,.67,2.76,2.76,0,0,0-.64,1,3.55,3.55,0,0,0-.22,1.28v.68H99.51a2.77,2.77,0,0,1,0-.39v-.35a8.22,8.22,0,0,1,.62-3.27,6.39,6.39,0,0,1,1.88-2.5,9.12,9.12,0,0,1,3.14-1.61,15.58,15.58,0,0,1,4.4-.56A12.72,12.72,0,0,1,113.26,176.16Z"/><path class="cls-3" d="M131.41,199.46h-7.2v-6.77h7.2Z"/><path class="cls-3" d="M149.14,175.65a10,10,0,0,1-.59,2.1,26.22,26.22,0,0,1-1.14,2.46q-.67,1.29-1.53,2.61c-.56.89-1.15,1.75-1.75,2.58s-1.21,1.61-1.82,2.35-1.18,1.37-1.71,1.91h6.73V184.8c.29-.41.61-.91,1-1.5s.72-1.21,1.06-1.85.65-1.26.93-1.88a9.74,9.74,0,0,0,.6-1.66h2.89v11.75h3.27v5h-3.27v4.8h-6.46v-4.8H135.94V189.6c.55-.81,1.13-1.74,1.73-2.79s1.2-2.18,1.78-3.39,1.13-2.47,1.65-3.79,1-2.64,1.36-4Z"/></svg>