<svg id="Capa_1" data-name="Capa 1" xmlns="http://www.w3.org/2000/svg" xmlns:xlink="http://www.w3.org/1999/xlink" viewBox="0 0 398.37 231.93"><defs><style>.cls-1{fill:url(#New_Gradient_Swatch_2);}.cls-2{fill:url(#Nueva_muestra_de_degradado_1);}.cls-3{fill:#272123;}.cls-4{fill:#e1d28a;}</style><linearGradient id="New_Gradient_Swatch_2" x1="100.79" y1="208.53" x2="295.22" y2="14.1" gradientUnits="userSpaceOnUse"><stop offset="0" stop-color="#966f40"/><stop offset="0.13" stop-color="#ba925b"/><stop offset="0.28" stop-color="#966f40"/><stop offset="0.43" stop-color="#c99b61"/><stop offset="0.56" stop-color="#f0bd7a"/><stop offset="0.63" stop-color="#ffca84"/><stop offset="0.69" stop-color="#edbb79"/><stop offset="0.81" stop-color="#c0935b"/><stop offset="0.91" stop-color="#966f40"/></linearGradient><linearGradient id="Nueva_muestra_de_degradado_1" x1="23.34" y1="111.32" x2="372.67" y2="111.32" gradientUnits="userSpaceOnUse"><stop offset="0" stop-color="#bd955d"/><stop offset="0.28" stop-color="#966f40"/><stop offset="0.43" stop-color="#c99b61"/><stop offset="0.56" stop-color="#f0bd7a"/><stop offset="0.63" stop-color="#ffca84"/><stop offset="0.71" stop-color="#edbb79"/><stop offset="0.87" stop-color="#c0935b"/><stop offset="1" stop-color="#966f40"/></linearGradient></defs><rect class="cls-1" x="25.03" y="59.5" width="345.94" height="103.64" rx="51.82"/><path class="cls-2" d="M319.16,164.83H76.85a53.52,53.52,0,0,1,0-107H319.16a53.52,53.52,0,0,1,0,107ZM76.85,61.19a50.13,50.13,0,0,0,0,100.25H319.16a50.13,50.13,0,0,0,0-100.25Z"/><path class="cls-3" d="M133.14,94.34a26.35,26.35,0,0,1,5.08.93,15.19,15.19,0,0,1,4.3,2,9.8,9.8,0,0,1,3,3.2,8.9,8.9,0,0,1,1.12,4.57H134.85a2.87,2.87,0,0,0-.5-1.64,3.35,3.35,0,0,0-1.13-1,4.53,4.53,0,0,0-1.44-.48,9.6,9.6,0,0,0-1.43-.13c-.27,0-.67,0-1.18,0a6.75,6.75,0,0,0-1.54.23,3.4,3.4,0,0,0-1.32.65,1.59,1.59,0,0,0,.37,2.66,9,9,0,0,0,2.46.8c1,.21,2.17.4,3.47.56s2.63.39,4,.65a34.16,34.16,0,0,1,4,1.06,12.2,12.2,0,0,1,3.48,1.8,8.72,8.72,0,0,1,2.46,2.89,9.08,9.08,0,0,1,.93,4.32,11.18,11.18,0,0,1-1.12,5.21,10.18,10.18,0,0,1-3.06,3.55,14.14,14.14,0,0,1-4.55,2.12,28.42,28.42,0,0,1-5.56.95l.5,8.69h-7.18l.44-8.75a26.48,26.48,0,0,1-5.31-1.1,16,16,0,0,1-4.5-2.23,10.86,10.86,0,0,1-3.14-3.44,9.46,9.46,0,0,1-1.18-4.82h11.77v.25a3.14,3.14,0,0,0,.64,2,4.16,4.16,0,0,0,1.46,1.18,6.32,6.32,0,0,0,1.8.58,10.58,10.58,0,0,0,1.63.15c.45,0,1,0,1.58-.06a8.81,8.81,0,0,0,1.73-.29,3.69,3.69,0,0,0,1.39-.73,1.73,1.73,0,0,0,.58-1.4,1.68,1.68,0,0,0-.93-1.49,8.87,8.87,0,0,0-2.46-.92q-1.52-.36-3.48-.63c-1.3-.19-2.63-.43-4-.72a34.5,34.5,0,0,1-4-1.1,13,13,0,0,1-3.48-1.8,8.8,8.8,0,0,1-2.45-2.83,8.57,8.57,0,0,1-.93-4.17,10.57,10.57,0,0,1,1-4.88,9.69,9.69,0,0,1,2.83-3.36,13,13,0,0,1,4.19-2,27.26,27.26,0,0,1,5.17-.95l-.44-8.75h7.18Z"/><path class="cls-3" d="M183.68,123.94h10v9.78h-33v-9.78H171V104.15H160.67V96.76a24.25,24.25,0,0,0,4.74-.76,44.52,44.52,0,0,0,5-1.6q2.49-1,4.82-2.12a43.38,43.38,0,0,0,4.2-2.38h4.25Z"/><path class="cls-3" d="M236.12,100.77H215.31l-.53,6.61a11.2,11.2,0,0,1,2.45-1.42,19.18,19.18,0,0,1,3-1,16,16,0,0,1,4-.45,18.36,18.36,0,0,1,6.29,1,13.33,13.33,0,0,1,4.78,2.94,12.74,12.74,0,0,1,3,4.67,17,17,0,0,1,1.08,6.24,14,14,0,0,1-1.26,5.89,14.35,14.35,0,0,1-3.59,4.8,17.3,17.3,0,0,1-5.65,3.23,22.35,22.35,0,0,1-7.45,1.18,29.69,29.69,0,0,1-8.37-1.07,17.67,17.67,0,0,1-6.06-3,12.37,12.37,0,0,1-3.66-4.71,14.74,14.74,0,0,1-1.23-6.1h11.18a6.42,6.42,0,0,0,.43,2.36,5.49,5.49,0,0,0,1.29,2,6.16,6.16,0,0,0,2.13,1.32,8.33,8.33,0,0,0,2.95.48,8.1,8.1,0,0,0,2.95-.5,5.8,5.8,0,0,0,2.11-1.37,5.7,5.7,0,0,0,1.28-2,7.33,7.33,0,0,0,.43-2.57,7.68,7.68,0,0,0-.43-2.61,5.63,5.63,0,0,0-1.29-2.08,6,6,0,0,0-2.1-1.37,7.68,7.68,0,0,0-2.86-.5,7.84,7.84,0,0,0-2.67.39,7.06,7.06,0,0,0-1.74.9,5.12,5.12,0,0,0-1.07,1.06c-.26.36-.47.65-.63.85L204,114.43,205.84,90h30.28Z"/><path class="cls-3" d="M275.46,90.82a13.78,13.78,0,0,1,5.7,4.61,18.84,18.84,0,0,1,3,7.16,49.66,49.66,0,0,1,0,18.51,18.8,18.8,0,0,1-3,7.15,13.87,13.87,0,0,1-5.7,4.62,25.77,25.77,0,0,1-18,0,14.1,14.1,0,0,1-5.73-4.62,18.53,18.53,0,0,1-3-7.15,49.66,49.66,0,0,1,0-18.51,18.58,18.58,0,0,1,3-7.16,14,14,0,0,1,5.73-4.61,25.77,25.77,0,0,1,18,0ZM263.6,98.41a4.65,4.65,0,0,0-1.9,1.93,10.14,10.14,0,0,0-1.05,3.37,31.78,31.78,0,0,0-.33,5V115a32,32,0,0,0,.33,5,10.57,10.57,0,0,0,1.05,3.4,4.65,4.65,0,0,0,1.9,2,5.87,5.87,0,0,0,2.84.62,5.73,5.73,0,0,0,2.81-.62,4.67,4.67,0,0,0,1.85-2,10.86,10.86,0,0,0,1-3.4,33.58,33.58,0,0,0,.31-5v-6.3a33.34,33.34,0,0,0-.31-5,10.41,10.41,0,0,0-1-3.37,4.67,4.67,0,0,0-1.85-1.93,5.84,5.84,0,0,0-2.81-.62A6,6,0,0,0,263.6,98.41Z"/><path class="cls-4" d="M14.07,231.15H0V187.39H14.07Z"/><path class="cls-4" d="M70.85,231.15H58.58L40.2,209.91v21.24H27.31V187.39H39.58L58,209V187.39H70.85Z"/><path class="cls-4" d="M132.39,187.39a14.61,14.61,0,0,1,5.69,1.09,13.19,13.19,0,0,1,4.42,3,13.73,13.73,0,0,1,2.88,4.55,15.69,15.69,0,0,1,1,5.73v.81a15.83,15.83,0,0,1-1,5.75,13.86,13.86,0,0,1-2.88,4.58,12.92,12.92,0,0,1-4.42,3,14.43,14.43,0,0,1-5.69,1.09H121.9v14.13h-14V187.39ZM121.9,197.77v9h5.81a4,4,0,0,0,4.44-4.28V202a3.89,3.89,0,0,0-4.44-4.25Z"/><path class="cls-4" d="M198,204.55a12.28,12.28,0,0,1-1.59,3.4,12,12,0,0,1-2.64,2.84,13.12,13.12,0,0,1-3.69,2l9.72,18.32H184l-7.76-16H171v16H157V187.39h26.77a17.06,17.06,0,0,1,6.4,1.11,13.48,13.48,0,0,1,4.63,2.95,12,12,0,0,1,2.79,4.27,14.06,14.06,0,0,1,.94,5.09A13.41,13.41,0,0,1,198,204.55Zm-14.1-4.76a3.8,3.8,0,0,0-.86-1.28,4,4,0,0,0-1.25-.82,3.94,3.94,0,0,0-1.53-.3H171v8.08h9.22a3.77,3.77,0,0,0,1.53-.31,4,4,0,0,0,1.25-.86,3.9,3.9,0,0,0,.86-1.28,4.33,4.33,0,0,0,.31-1.62A4.24,4.24,0,0,0,183.87,199.79Z"/><path class="cls-4" d="M224.31,231.15H210.25V187.39h14.06Z"/><path class="cls-4" d="M276.28,191.9,256,220.65h20.81v10.5H234.36v-4.5l20.28-28.76H235.88v-10.5h40.4Z"/><path class="cls-4" d="M286.67,231.15V187.39h37.82v10.5H300.71v6h20.37V214H300.71v6.67h24.22v10.5Z"/><path class="cls-4" d="M361.57,187.41a19.56,19.56,0,0,1,6.12,2.45,12.93,12.93,0,0,1,4.18,4.21,11.88,11.88,0,0,1,1.61,6.06v.74H360.31v-.25A4.45,4.45,0,0,0,360,199a3.78,3.78,0,0,0-1-1.41,5,5,0,0,0-1.76-1,8.16,8.16,0,0,0-2.59-.37,8.73,8.73,0,0,0-4.36.86,2.39,2.39,0,0,0-1.45,2,2.29,2.29,0,0,0,1.11,2,10.24,10.24,0,0,0,2.9,1.26c1.2.34,2.57.65,4.1.93s3.1.61,4.7,1a40.28,40.28,0,0,1,4.72,1.46,15.58,15.58,0,0,1,4.15,2.29,10.58,10.58,0,0,1,4.16,8.67,15.26,15.26,0,0,1-1.46,7,12.7,12.7,0,0,1-4.05,4.75,17.42,17.42,0,0,1-6.12,2.7,32.41,32.41,0,0,1-7.65.86,49.89,49.89,0,0,1-8.56-.69,19.41,19.41,0,0,1-6.86-2.43,12.37,12.37,0,0,1-4.55-4.78,16,16,0,0,1-1.65-7.69h13.29a6.85,6.85,0,0,0,.5,2.84,4,4,0,0,0,1.41,1.68,5.48,5.48,0,0,0,2.22.8,18.54,18.54,0,0,0,2.92.21c.64,0,1.33,0,2.05-.08a8.76,8.76,0,0,0,2-.36,3.68,3.68,0,0,0,1.52-.87,2.3,2.3,0,0,0-.5-3.51,10.91,10.91,0,0,0-2.92-1.22c-1.21-.35-2.59-.66-4.14-1s-3.14-.64-4.74-1.06a35.55,35.55,0,0,1-4.74-1.57,15.54,15.54,0,0,1-4.14-2.46,11.51,11.51,0,0,1-2.92-3.75,12,12,0,0,1-1.1-5.42,12.3,12.3,0,0,1,1.61-6.49,12.87,12.87,0,0,1,4.32-4.33,19.65,19.65,0,0,1,6.26-2.42,35.19,35.19,0,0,1,7.43-.76A33.48,33.48,0,0,1,361.57,187.41Z"/><path class="cls-4" d="M394.74,215.5h-8.08l-3.51-28.11h15.22ZM397,231.15h-12.6V219.38H397Z"/><path class="cls-4" d="M137.33,24.55A18.42,18.42,0,0,1,136,31.82a13.6,13.6,0,0,1-3.88,5.24,17.14,17.14,0,0,1-6.23,3.18,29.78,29.78,0,0,1-8.38,1.08,30,30,0,0,1-8.4-1.08,17.19,17.19,0,0,1-6.24-3.18A13.85,13.85,0,0,1,99,31.82a18.42,18.42,0,0,1-1.34-7.27V.71h12.8V24.38a9.53,9.53,0,0,0,.44,3,6.37,6.37,0,0,0,1.32,2.33,6,6,0,0,0,2.19,1.53,8,8,0,0,0,3.07.55,8.19,8.19,0,0,0,3.09-.55,6.12,6.12,0,0,0,2.22-1.53,6.25,6.25,0,0,0,1.33-2.33,9.24,9.24,0,0,0,.44-3V.71h12.8Z"/><path class="cls-4" d="M171.22.71a13.25,13.25,0,0,1,5.18,1,12,12,0,0,1,4,2.75,12.27,12.27,0,0,1,2.62,4.15,14,14,0,0,1,.94,5.22v.74a14.27,14.27,0,0,1-.94,5.24A12.46,12.46,0,0,1,180.43,24a11.86,11.86,0,0,1-4,2.76,13.07,13.07,0,0,1-5.18,1h-9.58V40.61h-12.8V.71Zm-9.58,9.46v8.24h5.3a4,4,0,0,0,3-1.06,4,4,0,0,0,1-2.85v-.45a4,4,0,0,0-1-2.84,4,4,0,0,0-3.07-1Z"/><path class="cls-4" d="M251.87,10.9h-13V40.61H226V10.9H212.9V.71h39Z"/><path class="cls-4" d="M287.62,1.32a18,18,0,0,1,6.78,3.9,16.92,16.92,0,0,1,4.22,6.46,25.41,25.41,0,0,1,1.46,9,25.49,25.49,0,0,1-1.46,9,16.81,16.81,0,0,1-4.22,6.45A17.87,17.87,0,0,1,287.62,40a32.13,32.13,0,0,1-18.23,0,17.9,17.9,0,0,1-6.77-3.91,16.66,16.66,0,0,1-4.2-6.45,25.72,25.72,0,0,1-1.45-9,25.65,25.65,0,0,1,1.45-9,16.77,16.77,0,0,1,4.2-6.46,18,18,0,0,1,6.77-3.9,32.13,32.13,0,0,1,18.23,0ZM274.8,10.25a7.23,7.23,0,0,0-2.62,1.9,8,8,0,0,0-1.57,2.92,12.6,12.6,0,0,0-.52,3.73v3.71a12.62,12.62,0,0,0,.52,3.74,8,8,0,0,0,1.57,2.92,7.23,7.23,0,0,0,2.62,1.9,9.33,9.33,0,0,0,3.7.68,9.45,9.45,0,0,0,3.71-.68,7.35,7.35,0,0,0,2.65-1.9,8,8,0,0,0,1.58-2.92,12.61,12.61,0,0,0,.53-3.74V18.8a12.59,12.59,0,0,0-.53-3.73,8,8,0,0,0-1.58-2.92,7.35,7.35,0,0,0-2.65-1.9,9.45,9.45,0,0,0-3.71-.68A9.33,9.33,0,0,0,274.8,10.25Z"/></svg>