<svg id="Capa_1" data-name="Capa 1" xmlns="http://www.w3.org/2000/svg" xmlns:xlink="http://www.w3.org/1999/xlink" viewBox="0 0 232.31 232.38"><defs><style>.cls-1{fill:url(#Degradado_sin_nombre_3);}</style><linearGradient id="Degradado_sin_nombre_3" x1="152.61" y1="150.64" x2="-0.8" y2="5.35" gradientTransform="translate(232.26 0) rotate(90)" gradientUnits="userSpaceOnUse"><stop offset="0" stop-color="#bd955d"/><stop offset="0.35" stop-color="#966f40"/><stop offset="0.45" stop-color="#c99b61"/><stop offset="0.54" stop-color="#f0bd7a"/><stop offset="0.59" stop-color="#ffca84"/><stop offset="0.68" stop-color="#edbb79"/><stop offset="0.86" stop-color="#c0935b"/><stop offset="1" stop-color="#966f40"/></linearGradient></defs><path class="cls-1" d="M162.69,3.49h65.87l0,0h0s0,0,0,0a0,0,0,0,1,0,0h0l0,0a0,0,0,0,1,0,0s0,0,0,0,0,0,0,0v0s0,0,0,0,0,0,0,0,0,0,0,0a0,0,0,0,1,0,0V69.62a.42.42,0,0,1-.42.42.41.41,0,0,1-.42-.42V7.11L211.8,67.49a.42.42,0,0,1-.83-.11.45.45,0,0,1,0-.11L227.16,6.89,195.91,61a.42.42,0,0,1-.58.15.42.42,0,0,1-.21-.36.39.39,0,0,1,.06-.21L226.43,6.47l-44.2,44.2a.42.42,0,0,1-.72-.29.42.42,0,0,1,.12-.3l44.2-44.2L171.7,37.13a.42.42,0,0,1-.58-.15.54.54,0,0,1-.05-.21.42.42,0,0,1,.21-.37L225.41,5.15,165,21.33a.42.42,0,0,1-.51-.3.52.52,0,0,1,0-.11.43.43,0,0,1,.32-.41L225.19,4.33h-62.5a.42.42,0,1,1,0-.84Zm66.13,173.2v-89a.42.42,0,0,0-.42-.42A83.42,83.42,0,0,1,145.07,3.91a.42.42,0,0,0-.42-.42h-89a.42.42,0,1,0,0,.84h88.61A84.27,84.27,0,0,0,228,88.08v88.61a.42.42,0,0,0,.42.42A.42.42,0,0,0,228.82,176.69Zm-.43,55.57a3.63,3.63,0,0,1-3.33-1.81,4.51,4.51,0,0,1,0-4.39,4,4,0,0,1,6.67,0,4.48,4.48,0,0,1,0,4.4A3.64,3.64,0,0,1,228.39,232.26Zm0-.84A2.82,2.82,0,0,0,231,230a3.65,3.65,0,0,0,0-3.55,2.83,2.83,0,0,0-2.6-1.39h0a2.84,2.84,0,0,0-2.6,1.39,3.67,3.67,0,0,0,0,3.55A2.82,2.82,0,0,0,228.39,231.42Zm0-30.27a3.63,3.63,0,0,1-3.33-1.8,4.53,4.53,0,0,1,0-4.4,4,4,0,0,1,6.67,0,4.48,4.48,0,0,1,0,4.4A3.62,3.62,0,0,1,228.39,201.15Zm0-.84a2.82,2.82,0,0,0,2.61-1.39,3.49,3.49,0,0,0,.46-1.77,3.53,3.53,0,0,0-.46-1.78,2.83,2.83,0,0,0-2.6-1.39h0a2.84,2.84,0,0,0-2.6,1.39,3.67,3.67,0,0,0,0,3.55A2.82,2.82,0,0,0,228.39,200.31ZM6.25,7.24a4.48,4.48,0,0,1-4.4,0A3.63,3.63,0,0,1,.05,4V3.83A3.62,3.62,0,0,1,1.85.58a4.48,4.48,0,0,1,4.4,0A3.61,3.61,0,0,1,8.06,3.91,3.68,3.68,0,0,1,6.25,7.24Zm-.42-.72a2.84,2.84,0,0,0,1.39-2.6v0A2.88,2.88,0,0,0,5.83,1.3a3.67,3.67,0,0,0-3.55,0A2.83,2.83,0,0,0,.89,3.9,2.83,2.83,0,0,0,2.28,6.52,3.67,3.67,0,0,0,5.83,6.52ZM33,.58a4.48,4.48,0,0,1,4.4,0,3.64,3.64,0,0,1,1.81,3.33,3.66,3.66,0,0,1-1.81,3.33,4.48,4.48,0,0,1-4.4,0A3.62,3.62,0,0,1,31.15,4V3.83A3.61,3.61,0,0,1,33,.58Zm.43.72A2.79,2.79,0,0,0,32,3.9a2.74,2.74,0,0,0,1.39,2.62,3.65,3.65,0,0,0,3.54,0,2.79,2.79,0,0,0,1.39-2.6v0a2.77,2.77,0,0,0-1.38-2.6A3.67,3.67,0,0,0,33.39,1.3Z"/></svg>