<svg id="Capa_1" data-name="Capa 1" xmlns="http://www.w3.org/2000/svg" xmlns:xlink="http://www.w3.org/1999/xlink" viewBox="0 0 232.31 232.38"><defs><style>.cls-1{fill:url(#Degradado_sin_nombre_3);}</style><linearGradient id="Degradado_sin_nombre_3" x1="152.61" y1="150.68" x2="-0.81" y2="5.4" gradientUnits="userSpaceOnUse"><stop offset="0" stop-color="#bd955d"/><stop offset="0.35" stop-color="#966f40"/><stop offset="0.45" stop-color="#c99b61"/><stop offset="0.54" stop-color="#f0bd7a"/><stop offset="0.59" stop-color="#ffca84"/><stop offset="0.68" stop-color="#edbb79"/><stop offset="0.86" stop-color="#c0935b"/><stop offset="1" stop-color="#966f40"/></linearGradient></defs><path class="cls-1" d="M3.49,69.62V3.89h0v0a.43.43,0,0,1,0-.05,0,0,0,0,0,0,0l0,0h0l0,0,0,0h0l0,0,0,0,0,0a0,0,0,0,1,0,0H69.62a.42.42,0,1,1,0,.84H7.11L67.49,20.51a.42.42,0,0,1,.3.52.43.43,0,0,1-.41.31l-.11,0L6.89,5.15,61,36.4a.42.42,0,0,1,.15.58.42.42,0,0,1-.36.21.39.39,0,0,1-.21-.06L6.47,5.88l44.2,44.2a.41.41,0,0,1,0,.59.39.39,0,0,1-.29.13.39.39,0,0,1-.3-.13L5.88,6.47,37.13,60.61a.41.41,0,0,1-.15.57.42.42,0,0,1-.21.06A.44.44,0,0,1,36.4,61L5.15,6.9,21.33,67.27a.43.43,0,0,1-.3.52h-.11a.42.42,0,0,1-.41-.31L4.33,7.11V69.62a.42.42,0,1,1-.84,0ZM176.69,3.49h-89a.42.42,0,0,0-.42.42A83.41,83.41,0,0,1,3.91,87.23a.42.42,0,0,0-.42.43v89a.42.42,0,1,0,.84,0V88.08A84.27,84.27,0,0,0,88.08,4.33h88.61a.42.42,0,1,0,0-.84Zm55.57.43a3.61,3.61,0,0,1-1.81,3.32,4.44,4.44,0,0,1-4.39,0,3.61,3.61,0,0,1-1.81-3.33A3.61,3.61,0,0,1,226.06.58a4.48,4.48,0,0,1,4.4,0A3.64,3.64,0,0,1,232.26,3.92Zm-.84,0A2.84,2.84,0,0,0,230,1.3a3.73,3.73,0,0,0-3.55,0,2.85,2.85,0,0,0-1.39,2.6v0a2.85,2.85,0,0,0,1.39,2.6,3.67,3.67,0,0,0,3.55,0A2.83,2.83,0,0,0,231.42,3.92Zm-30.27,0a3.6,3.6,0,0,1-1.8,3.32,4.46,4.46,0,0,1-4.4,0,3.61,3.61,0,0,1-1.81-3.33A3.61,3.61,0,0,1,195,.58a4.48,4.48,0,0,1,4.4,0A3.62,3.62,0,0,1,201.15,3.92Zm-.84,0a2.84,2.84,0,0,0-1.39-2.62,3.58,3.58,0,0,0-1.77-.45,3.62,3.62,0,0,0-1.78.45A2.85,2.85,0,0,0,194,3.9v0a2.85,2.85,0,0,0,1.39,2.6,3.67,3.67,0,0,0,3.55,0A2.83,2.83,0,0,0,200.31,3.92ZM7.24,226.06a4.46,4.46,0,0,1,0,4.39A3.62,3.62,0,0,1,4,232.26H3.83a3.61,3.61,0,0,1-3.25-1.81,4.48,4.48,0,0,1,0-4.4,3.62,3.62,0,0,1,3.33-1.8A3.68,3.68,0,0,1,7.24,226.06Zm-.72.42a2.82,2.82,0,0,0-2.6-1.39h0a2.88,2.88,0,0,0-2.6,1.39,3.67,3.67,0,0,0,0,3.55,2.83,2.83,0,0,0,2.6,1.39A2.83,2.83,0,0,0,6.52,230,3.67,3.67,0,0,0,6.52,226.48ZM.58,199.35a4.48,4.48,0,0,1,0-4.4,3.64,3.64,0,0,1,3.33-1.81A3.66,3.66,0,0,1,7.24,195a4.48,4.48,0,0,1,0,4.4A3.63,3.63,0,0,1,4,201.15H3.83A3.62,3.62,0,0,1,.58,199.35Zm.72-.43a2.81,2.81,0,0,0,2.6,1.39,2.78,2.78,0,0,0,2.62-1.39,3.67,3.67,0,0,0,0-3.55A2.82,2.82,0,0,0,3.92,194h0a2.8,2.8,0,0,0-2.6,1.39A3.67,3.67,0,0,0,1.3,198.92Z"/></svg>