<svg id="Capa_1" data-name="Capa 1" xmlns="http://www.w3.org/2000/svg" xmlns:xlink="http://www.w3.org/1999/xlink" viewBox="0 0 3179.32 1644.41"><defs><style>.cls-1{fill:none;}.cls-2{clip-path:url(#clip-path);}.cls-3{fill:#ccba8f;opacity:0.1;}</style><clipPath id="clip-path"><rect class="cls-1" x="1.25" y="1856.09" width="1920" height="2910.41"/></clipPath></defs><g class="cls-2"><path class="cls-3" d="M2651.91,3763.24,965.2,3311.29l1686.7-451.95a1,1,0,1,0-.53-2L976,3306.27l1602.41-663.74a1,1,0,1,0-.79-1.88L975.26,3304.38l1502.06-867.21a1,1,0,0,0-1-1.77L974.24,3302.61l1376-1055.85a1,1,0,1,0-1.24-1.62L973,3301,2199.42,2074.56a1,1,0,0,0-1.44-1.44L971.55,3299.55l1055.85-1376a1,1,0,0,0-.19-1.43,1,1,0,0,0-1.43.19l-1055.85,1376,867.21-1502.07a1,1,0,0,0-.37-1.39,1,1,0,0,0-1.4.37L968.16,3297.29l663.73-1602.41a1,1,0,1,0-1.88-.78L966.27,3296.5l448.9-1675.33a1,1,0,0,0-2-.53L964.3,3296l226.39-1719.59a1,1,0,0,0-.88-1.15,1,1,0,0,0-1.15.88L962.27,3295.7V1561.27a1,1,0,0,0-2,0V3295.7L733.84,1576.11a1,1,0,1,0-2,.27L958.2,3296,509.3,1620.64a1,1,0,0,0-2,.53L956.23,3296.5,292.49,1694.1a1,1,0,1,0-1.89.78L954.34,3297.29,87.12,1795.22a1,1,0,0,0-1.77,1L952.57,3298.3l-1055.85-1376a1,1,0,0,0-1.44-.19,1,1,0,0,0-.19,1.43L951,3299.55-275.48,2073.12a1,1,0,0,0-1.44,0,1,1,0,0,0,0,1.44L949.5,3301l-1376-1055.85a1,1,0,0,0-1.44.19,1,1,0,0,0,.19,1.43l1376,1055.85L-553.8,2435.4a1,1,0,0,0-1.4.37,1,1,0,0,0,.38,1.4L947.24,3304.38-655.17,2640.65a1,1,0,0,0-1.33.55,1,1,0,0,0,.55,1.33L946.46,3306.27l-1675.34-448.9a1,1,0,0,0-1.25.72,1,1,0,0,0,.73,1.25L957.31,3311.29l-1686.7,451.95a1,1,0,0,0-.73,1.25,1,1,0,0,0,1,.76,1.09,1.09,0,0,0,.26,0L946.47,3316.31-655.94,3980.05a1,1,0,0,0-.55,1.34,1,1,0,0,0,.94.63,1,1,0,0,0,.39-.08L947.25,3318.2-554.81,4185.42a1,1,0,0,0-.38,1.39,1,1,0,0,0,.89.51,1,1,0,0,0,.51-.13L948.27,3320l-1376,1055.85a1,1,0,0,0-.18,1.44,1,1,0,0,0,.81.4,1.05,1.05,0,0,0,.62-.21l1376-1055.86L-276.91,4548a1,1,0,0,0,0,1.44,1,1,0,0,0,.72.3,1,1,0,0,0,.72-.3L951,3323l-1055.86,1376a1,1,0,0,0,.19,1.44,1.05,1.05,0,0,0,.62.21,1.05,1.05,0,0,0,.82-.4l1055.85-1376L85.37,4826.34a1,1,0,0,0,.37,1.4,1,1,0,0,0,.51.13,1,1,0,0,0,.88-.51L954.35,3325.3,290.61,4927.71a1,1,0,0,0,.56,1.33.88.88,0,0,0,.39.08,1,1,0,0,0,.94-.63l663.74-1602.4L507.34,5001.42a1,1,0,0,0,.72,1.25,1.15,1.15,0,0,0,.26,0,1,1,0,0,0,1-.76l448.9-1675.33L731.82,5046.21a1,1,0,0,0,.88,1.14h.14a1,1,0,0,0,1-.89L960.24,3326.88V5061.31a1,1,0,0,0,2,0V3326.88l226.39,1719.59a1,1,0,0,0,1,.89h.14a1,1,0,0,0,.88-1.14L964.31,3326.61l448.9,1675.33a1,1,0,0,0,1,.76l.26,0a1,1,0,0,0,.72-1.25L966.28,3326.09,1630,4928.49a1,1,0,0,0,.94.63.91.91,0,0,0,.39-.08,1,1,0,0,0,.56-1.33L968.17,3325.3l867.21,1502.06a1,1,0,0,0,.89.51,1,1,0,0,0,.51-.13,1,1,0,0,0,.37-1.4L969.94,3324.28l1055.85,1376a1,1,0,0,0,.81.4,1,1,0,0,0,.62-.21,1,1,0,0,0,.19-1.44L971.56,3323,2198,4549.46a1,1,0,0,0,1.44-1.44L973,3321.59,2349,4377.45a1,1,0,0,0,.62.21,1,1,0,0,0,.62-1.84L974.25,3320l1502.06,867.22a1,1,0,0,0,1.39-.38,1,1,0,0,0-.37-1.39L975.27,3318.2l1602.4,663.74a1.09,1.09,0,0,0,.39.08,1,1,0,0,0,.4-2L976.05,3316.31l1675.33,448.91a1.24,1.24,0,0,0,.27,0,1,1,0,0,0,.26-2Z"/></g><path class="cls-3" d="M3180,1218.55a1,1,0,0,0-1.17-.67L1604.59,1639.69,3110.29,1016a1,1,0,0,0-.73-1.78L1603.85,1637.92,3015.27,823a1,1,0,0,0-1-1.66L1602.9,1636.25l1293-992.13a1,1,0,1,0-1.17-1.53l-1293,992.14L2754.14,482.31a.94.94,0,0,0,0-1.35,1,1,0,0,0-1.36,0L1600.37,1633.37l992.14-1293a1,1,0,0,0-1.53-1.17l-992.13,1293L2413.73,220.79a1,1,0,0,0-1.66-1L1597.18,1631.25,2220.87,125.54a1,1,0,0,0-1.78-.73l-623.68,1505.7L2017.22,56.28a1,1,0,0,0-.68-1.18,1,1,0,0,0-1.17.68L1593.56,1630,1806.28,14.19a1,1,0,0,0-1.9-.25L1591.65,1629.76V0a1,1,0,0,0-1.92,0V1629.76L1377,13.94a1,1,0,0,0-1.91.25L1587.83,1630,1166,55.78a1,1,0,1,0-1.86.5L1586,1630.51,962.29,124.81a.94.94,0,0,0-1.25-.52,1,1,0,0,0-.52,1.25L1584.2,1631.25,769.32,219.83a1,1,0,1,0-1.66,1L1582.54,1632.2,590.4,339.23a1,1,0,0,0-1.34-.18,1,1,0,0,0-.18,1.35l992.14,1293L428.6,481a1,1,0,0,0-1.36,1.35L1579.66,1634.73l-1293-992.14a1,1,0,0,0-1.17,1.53l1293,992.13L167.07,821.37a1,1,0,1,0-1,1.66l1411.42,814.89L71.83,1014.23a1,1,0,0,0-.74,1.78L1576.8,1639.69,2.57,1217.88a1,1,0,1,0-.5,1.85l1588.37,425.6h0l.08,0h.32l.09,0h0l1588.38-425.6A1,1,0,0,0,3180,1218.55Z"/></svg>