<svg id="Capa_1" data-name="Capa 1" xmlns="http://www.w3.org/2000/svg" viewBox="0 0 124.75 28.82"><defs><style>.cls-1{fill:#fff;}</style></defs><path d="M6.9,28.69a10.27,10.27,0,0,1-2.49-.46A3,3,0,0,1,3,27.12a3.57,3.57,0,0,1-.44-1.89v-.92a10.38,10.38,0,0,0,0-1.11q0-.36,0-1.11a6.29,6.29,0,0,0,0-.77c0-.94,0-2.34-.07-4.22l0-2.21q-.18-2.62-.18-6.36V6.13a10.72,10.72,0,0,1,.11-1.89,1.17,1.17,0,0,0,.09-.33c0-.1,0-.17,0-.22a1.18,1.18,0,0,1,.55-1A2.28,2.28,0,0,1,4,2.58a6.24,6.24,0,0,0,.72,0c.25,0,.53,0,.83,0s1,0,1.85-.07c.22,0,.48-.05.79-.07s.66,0,1.05,0c.79,0,1.35-.08,1.67-.08a49.36,49.36,0,0,1,7.09.6,41.21,41.21,0,0,1,4.44.7,11,11,0,0,1,4.1,1.74,5,5,0,0,1,1.81,4,5.18,5.18,0,0,1-2.55,4.69,1.74,1.74,0,0,1-.33.17l-.3.13A4.25,4.25,0,0,0,24,14.7l-.19.13a.76.76,0,0,0-.18.24s0,0,0,.07l.07.08a13,13,0,0,1,4.14,2.55,4.13,4.13,0,0,1,1.18,2.77c0,1.36-.82,2.72-2.47,4.1a16.79,16.79,0,0,1-6,2.92,33.37,33.37,0,0,1-5.25,1,37,37,0,0,1-4.21.22C9.35,28.82,8,28.78,6.9,28.69Zm8-6.45s0,0,0,0c1.72-.83,3.68-1.75,5.88-2.73a.5.5,0,0,1,.18-.15l.19-.11a15.66,15.66,0,0,0-3.07-.63c-1.28,0-2.34-.07-3.18-.07-.27,0-.41.17-.41.52V22c0,.18.1.26.3.26Zm1-10.79a9.9,9.9,0,0,0,1.81-.82c.35-.14.69-.3,1-.46s.56-.26.69-.31l.33-.15L20,9.64c.1,0,.15-.06.15-.19,0-.42-.45-.7-1.37-.85a9.6,9.6,0,0,0-2-.18,1.3,1.3,0,0,0-1.4.85,2.73,2.73,0,0,0-.19,1.11v1c0,.13.1.19.3.19A.93.93,0,0,0,15.9,11.45Z"/><path class="cls-1" d="M4.53,26.45A9.84,9.84,0,0,1,2,26a3,3,0,0,1-1.4-1.1A3.48,3.48,0,0,1,.18,23v-.92A10.38,10.38,0,0,0,.22,21a10.38,10.38,0,0,0,0-1.11c0-.25,0-.51,0-.78,0-.93,0-2.34-.08-4.21l0-2.22Q0,10,0,6.28V3.88A11.75,11.75,0,0,1,.11,2,1.33,1.33,0,0,0,.2,1.66a1,1,0,0,0,0-.22,1.22,1.22,0,0,1,.56-1A2.42,2.42,0,0,1,1.59.33l.72,0a7.33,7.33,0,0,1,.83,0c.4,0,1,0,1.85-.08L5.78.11c.31,0,.66,0,1.06,0C7.63,0,8.18,0,8.5,0a50.81,50.81,0,0,1,7.1.59,44.1,44.1,0,0,1,4.43.7A11.51,11.51,0,0,1,24.14,3,5,5,0,0,1,26,7a5.18,5.18,0,0,1-2.55,4.69,3.57,3.57,0,0,1-.34.17,2.38,2.38,0,0,0-.29.13,4.19,4.19,0,0,0-1.15.48.56.56,0,0,0-.18.13.65.65,0,0,0-.19.24.09.09,0,0,1,0,.07l.07.07a13,13,0,0,1,4.14,2.55,4.17,4.17,0,0,1,1.19,2.78q0,2-2.48,4.1a17.13,17.13,0,0,1-6,2.92,33.43,33.43,0,0,1-5.24,1,37,37,0,0,1-4.22.23C7,26.58,5.57,26.53,4.53,26.45Zm8-6.45s0,0,0,0q2.6-1.26,5.88-2.74c.1-.09.16-.14.19-.14l.18-.11a15.52,15.52,0,0,0-3.07-.63c-1.28-.05-2.34-.08-3.18-.08-.27,0-.4.18-.4.52v3c0,.17.1.26.29.26Zm1-10.8a11,11,0,0,0,1.81-.81l1-.46L17,7.61l.33-.14.3-.08q.15,0,.15-.18c0-.42-.46-.7-1.37-.85a9,9,0,0,0-2-.19A1.32,1.32,0,0,0,13,7a3,3,0,0,0-.18,1.11v1c0,.12.09.18.29.18A.87.87,0,0,0,13.53,9.2Z"/><path d="M41.74,27.64a1.93,1.93,0,0,1-.37-.82,1.55,1.55,0,0,1-.19-.48,5.92,5.92,0,0,1-.48-1.84c-.1-1.14-.14-2-.14-2.7,0-.3,0-.71,0-1.22v-.89c0-.74,0-1.32,0-1.74s0-1.31,0-2.62q0-5.25.23-8.1c0-.29.41-.51,1.25-.66h2c1.4,0,2.45,0,3.14.07,1,.08,2.08.11,3.14.11a3.72,3.72,0,0,0,.55,0h.56l.18.14a17.18,17.18,0,0,1,2.52-.33c.86,0,1.91-.07,3.14-.07a.26.26,0,0,1,.18.11h1.19A.51.51,0,0,1,59,6.9a3.53,3.53,0,0,1,.27,1,6.28,6.28,0,0,1,.23,1.19,6.12,6.12,0,0,0,.26,1.21c0,.7-.13,1-.37,1,0,0-.07,0-.12-.11l-.14,0a.85.85,0,0,0-.41,0,1.13,1.13,0,0,1-.48.11.62.62,0,0,1-.37-.11.79.79,0,0,0-.33,0,3.54,3.54,0,0,0-.78.11,4.38,4.38,0,0,1-.57.11,5.71,5.71,0,0,1-1,.08c-1.06,0-1.83,0-2.29.07a2.4,2.4,0,0,0-.78.22v-.07c-.1,0-.18.12-.26.37a5.83,5.83,0,0,0-.33,1.74,5.6,5.6,0,0,0,0,.74.9.9,0,0,0,.13.55.55.55,0,0,0,.43.15.51.51,0,0,0,.37-.15.45.45,0,0,1,.18,0,.4.4,0,0,1,.19.11H56a.2.2,0,0,1,.11-.11.28.28,0,0,1,.15,0,1.13,1.13,0,0,1,.55.11,3.69,3.69,0,0,0,.89.22.61.61,0,0,1,.52.22.9.9,0,0,1,.18.48l.78,2.44q.1.6-1.11.78a15.63,15.63,0,0,1-2.7.15h-2.7a4.73,4.73,0,0,0-.77.05.42.42,0,0,0-.34.28.93.93,0,0,0-.15.59v.15a.74.74,0,0,0,0,.26l0,.81a7.46,7.46,0,0,0,0,.78v.92c1.11,0,2.24,0,3.4-.11s2.25-.11,3.36-.11c.08,0,.14.06.19.17a.94.94,0,0,1,.07.39,1.43,1.43,0,0,1,.07.48,6.23,6.23,0,0,0,.23,1l.26,1.07v1.15l-.3.26h-.37a1.9,1.9,0,0,1-.52,0,.44.44,0,0,0-.26-.07l-.22.11-.26.15V27.6l-.44,0H56a.32.32,0,0,1-.23-.08l-.29,0a4.84,4.84,0,0,0-1.92.26H41.85C41.8,27.79,41.76,27.74,41.74,27.64Z"/><path class="cls-1" d="M39.36,25.39a2.16,2.16,0,0,1-.37-.81,1.86,1.86,0,0,1-.18-.48,5.66,5.66,0,0,1-.48-1.85q-.15-1.7-.15-2.7c0-.29,0-.7,0-1.22v-.88c0-.74,0-1.32,0-1.74s0-1.32,0-2.63q0-5.23.22-8.09c0-.3.42-.52,1.26-.67h2c1.4,0,2.45,0,3.14.08,1,.07,2.08.11,3.14.11a2.67,2.67,0,0,0,.56,0H49l.19.15a17,17,0,0,1,2.51-.33c.86,0,1.91-.08,3.14-.08a.35.35,0,0,1,.19.11h1.18a.51.51,0,0,1,.46.34,3.87,3.87,0,0,1,.28,1,6.23,6.23,0,0,1,.22,1.18A7.17,7.17,0,0,0,57.4,8c0,.69-.12,1-.37,1,0,0-.06,0-.11-.12l-.15,0a.84.84,0,0,0-.41,0,1,1,0,0,1-.48.12.59.59,0,0,1-.37-.12,1.11,1.11,0,0,0-.33,0A3,3,0,0,0,54.4,9l-.57.11a5.7,5.7,0,0,1-1,.07c-1.06,0-1.82,0-2.29.08a2.17,2.17,0,0,0-.78.22V9.43c-.09,0-.18.12-.25.36a5.5,5.5,0,0,0-.34,1.74c0,.22,0,.47,0,.74a.87.87,0,0,0,.13.56.54.54,0,0,0,.42.14.53.53,0,0,0,.37-.14l.19,0a.54.54,0,0,1,.18.11h3.14a.29.29,0,0,1,.11-.11.4.4,0,0,1,.15,0,1,1,0,0,1,.55.11,4.44,4.44,0,0,0,.89.22.57.57,0,0,1,.52.22.85.85,0,0,1,.18.48l.78,2.44c.07.4-.3.65-1.11.78a16,16,0,0,1-2.7.14H50.27a3.7,3.7,0,0,0-.78.06.42.42,0,0,0-.33.28.93.93,0,0,0-.15.59v.15a.56.56,0,0,0,0,.26l0,.81a5,5,0,0,0,0,.77v.93c1.11,0,2.24,0,3.4-.11s2.26-.11,3.37-.11c.07,0,.13,0,.18.16a.94.94,0,0,1,.07.39,1.51,1.51,0,0,1,.08.48,6.36,6.36,0,0,0,.22,1L56.55,24v1.14l-.3.26h-.37a2.52,2.52,0,0,1-.51,0,.47.47,0,0,0-.26-.08l-.22.11-.26.15v-.18l-.45,0h-.55a.29.29,0,0,1-.22-.07l-.3,0a5,5,0,0,0-1.92.26H39.47S39.39,25.49,39.36,25.39Z"/><path d="M80.47,28H74.41A4.5,4.5,0,0,1,74,26.16a31.83,31.83,0,0,1-.14-3.55l0-4.07c0-1,0-2.55,0-4.69l-.11-.11H70.12c-.54,0-.9-.62-1.07-1.85A21.13,21.13,0,0,1,68.9,9V8.49A3.19,3.19,0,0,0,69,7.68V6.94l0-.3.15-.15.66,0h.74c1.09,0,1.91,0,2.48,0h7.5c.32,0,.78,0,1.37,0h.92a1.18,1.18,0,0,1,.49-.07,1.72,1.72,0,0,1,.48-.08,5.75,5.75,0,0,1,1.07.08c.49,0,.86.07,1.11.07l1,0h1.44c.74,0,1.24,0,1.51,0l.52,0,.11.09s.08.07.08.09V13a.75.75,0,0,1-.24.48,1.19,1.19,0,0,1-.47.33,15.94,15.94,0,0,0-3.17-.26H85.31c-.37,0-.62.47-.74,1.41a7,7,0,0,0-.07,1.18v1.11q0,.74,0,1.11v1a27.08,27.08,0,0,1-.14,2.81c0,.64-.08,1.11-.08,1.41a7.75,7.75,0,0,0-.07,1.22c0,.73,0,1.35-.07,1.84,0,.77-.31,1.17-.85,1.22s-.94.11-1,.11Z"/><path class="cls-1" d="M78.09,25.8H72a4.39,4.39,0,0,1-.44-1.89,31.14,31.14,0,0,1-.15-3.54l0-4.07c0-1,0-2.55,0-4.69l-.11-.11H67.74c-.54,0-.9-.62-1.07-1.85a21.23,21.23,0,0,1-.15-2.92V6.25a3.24,3.24,0,0,0,.08-.82V4.69l0-.29.15-.15.67,0h.74c1.08,0,1.91,0,2.47,0h7.51c.32,0,.77,0,1.36,0h.93a1.12,1.12,0,0,1,.48-.08,1.69,1.69,0,0,1,.48-.07,5.84,5.84,0,0,1,1.07.07c.49,0,.86.08,1.11.08l1,0H86c.74,0,1.25,0,1.52,0l.52,0a.57.57,0,0,0,.11.1.13.13,0,0,1,.07.09v6.28a.73.73,0,0,1-.24.48,1.11,1.11,0,0,1-.46.34,15.32,15.32,0,0,0-3.18-.26H82.93c-.36,0-.61.47-.73,1.4a6.91,6.91,0,0,0-.08,1.18V15a10.14,10.14,0,0,0,0,1.11v1A24.58,24.58,0,0,1,82,20c-.05.64-.07,1.11-.07,1.4a7.63,7.63,0,0,0-.08,1.22c0,.74,0,1.36-.07,1.85,0,.76-.31,1.17-.85,1.22s-.94.11-1,.11Z"/><path d="M98.8,26.71a3,3,0,0,1,.19-1,2.46,2.46,0,0,1,0-.43,1,1,0,0,0,0-.28q.85-4,1.89-7.94l2.51-9.84a.33.33,0,0,1,.11-.18,1.86,1.86,0,0,1,.22-.19h.26a1.68,1.68,0,0,0,.7-.11,6.83,6.83,0,0,1,.78,0c.59,0,1,0,1.33,0a7.68,7.68,0,0,0,1.37.11l1.92,0a2.87,2.87,0,0,1,.7-.08l1.63-.07h1.22c.47,0,.92,0,1.37,0h1c.25,0,.6,0,1.07,0h1.41a.85.85,0,0,1,.22,0l.18.07a.84.84,0,0,0,.37.08h.34a.49.49,0,0,1,.25.37l2.63,9.76c.81,3.13,1.45,5.77,1.92,7.94a4.58,4.58,0,0,0,.11.71,6.18,6.18,0,0,1,.15,1.18,6,6,0,0,1-.07.7.58.58,0,0,1-.52.37h-.41a4.71,4.71,0,0,1-.74,0h-2.22a.7.7,0,0,1-.29,0h-2l0-.08a.29.29,0,0,0-.22-.07l-.11.07a.07.07,0,0,1-.08.08h-.37a1.92,1.92,0,0,0-.66-.08c-.59-.05-1.09-.07-1.48-.07a19.25,19.25,0,0,1-1-3.74,11.77,11.77,0,0,1-1.78.12h-1.88a6.58,6.58,0,0,0-.19.92c0,.12-.12.54-.29,1.26a5.81,5.81,0,0,1-.48,1.44l-.22.07-.26.08h-.08a.42.42,0,0,1-.29-.08.55.55,0,0,0-.19-.07l-1.4.07h-1l-.29.06-.15,0h-3.25c-.22,0-.68,0-1.37,0h-.89a3.93,3.93,0,0,1-.7,0h-.44C98.89,28,98.7,27.55,98.8,26.71ZM114,18.58l-.3-1.77c0-.35-.1-.66-.15-.94s-.08-.55-.11-.8a7.5,7.5,0,0,1-.16-.83c0-.26-.08-.5-.13-.72s0-.34-.08-.57a1.37,1.37,0,0,0-.11-.5l-.07-.45a.47.47,0,0,0-.08-.26l0-.22-.08.22V12a.45.45,0,0,1,0,.13,1.6,1.6,0,0,0-.08.32c0,.12,0,.27-.07.46s-.06.39-.11.61L112.11,15l-.3,1.7-.11.82a7.54,7.54,0,0,0-.15,1c-.22,1.11-.32,1.61-.29,1.51h1.63l.11-.09a.15.15,0,0,1,.11-.05h.11a1.35,1.35,0,0,1,.31,0l.24.08a1.41,1.41,0,0,0,.45.07C114.07,19.22,114,18.73,114,18.58Z"/><path class="cls-1" d="M96.43,24.47a3.26,3.26,0,0,1,.18-1,1.66,1.66,0,0,1,0-.42,1.86,1.86,0,0,0,0-.28q.84-4,1.88-7.95L101.08,5a.3.3,0,0,1,.11-.18,1.28,1.28,0,0,1,.23-.19h.26a1.94,1.94,0,0,0,.7-.11,6,6,0,0,1,.77,0c.59,0,1,0,1.33,0a8.83,8.83,0,0,0,1.37.11l1.92,0a2.94,2.94,0,0,1,.71-.07l1.62-.07h1.22c.47,0,.93,0,1.37,0h1a10,10,0,0,0,1.08,0h1.4a.57.57,0,0,1,.22,0l.19.07a.82.82,0,0,0,.37.07h.33c.17.13.26.25.26.37l2.62,9.76q1.23,4.7,1.92,8a3.8,3.8,0,0,0,.12.7,7,7,0,0,1,.14,1.18,4.4,4.4,0,0,1-.07.71.58.58,0,0,1-.52.37h-.4a6.38,6.38,0,0,1-.74,0h-2.22c-.17,0-.27,0-.3,0h-2l0-.07a.29.29,0,0,0-.22-.08l-.11.08c0,.05,0,.07-.07.07h-.37a2.1,2.1,0,0,0-.67-.07c-.59,0-1.08-.08-1.48-.08a19.08,19.08,0,0,1-1-3.73,13.32,13.32,0,0,1-1.77.11h-1.89a5.32,5.32,0,0,0-.18.93l-.3,1.25a5.51,5.51,0,0,1-.48,1.44l-.22.08-.26.07H107a.44.44,0,0,1-.3-.07l-.18-.08-1.41.08h-1l-.3.05a.5.5,0,0,1-.15,0h-3.25a13.39,13.39,0,0,1-1.37,0h-.88a5.53,5.53,0,0,1-.71,0H97C96.51,25.73,96.33,25.31,96.43,24.47Zm15.15-8.13-.3-1.78c0-.34-.09-.66-.14-.94s-.09-.55-.11-.79a7.82,7.82,0,0,1-.17-.84c0-.25-.08-.49-.13-.72s0-.33-.07-.57a1.79,1.79,0,0,0-.11-.5l-.08-.44a.44.44,0,0,0-.07-.26l0-.22-.07.22v.26a.79.79,0,0,1,0,.13,1.63,1.63,0,0,0-.07.31c0,.13-.05.28-.08.46a5.29,5.29,0,0,1-.11.61l-.26,1.52-.29,1.7-.11.81a8.22,8.22,0,0,0-.15,1l-.3,1.52h1.63a.35.35,0,0,1,.11-.09.24.24,0,0,1,.11-.06h.11a1,1,0,0,1,.32,0l.24.07a1.32,1.32,0,0,0,.44.08C111.69,17,111.6,16.49,111.58,16.34Z"/></svg>