<svg id="Capa_1" data-name="Capa 1" xmlns="http://www.w3.org/2000/svg" xmlns:xlink="http://www.w3.org/1999/xlink" viewBox="0 0 231.01 231.01"><defs><style>.cls-1{fill:#302929;}.cls-2{stroke-miterlimit:10;stroke-width:2.54px;fill:url(#Nueva_muestra_de_degradado_1);stroke:url(#Nueva_muestra_de_degradado_1-2);}.cls-3{fill:#9d895f;}</style><linearGradient id="Nueva_muestra_de_degradado_1" x1="80.31" y1="135.48" x2="167.73" y2="48.06" gradientUnits="userSpaceOnUse"><stop offset="0" stop-color="#bd955d"/><stop offset="0.28" stop-color="#966f40"/><stop offset="0.43" stop-color="#c99b61"/><stop offset="0.56" stop-color="#f0bd7a"/><stop offset="0.63" stop-color="#ffca84"/><stop offset="0.71" stop-color="#edbb79"/><stop offset="0.87" stop-color="#c0935b"/><stop offset="1" stop-color="#966f40"/></linearGradient><linearGradient id="Nueva_muestra_de_degradado_1-2" x1="56.27" y1="94.97" x2="174.75" y2="94.97" xlink:href="#Nueva_muestra_de_degradado_1"/></defs><circle class="cls-1" cx="115.51" cy="115.51" r="115.51"/><path class="cls-2" d="M88,112.7H57.53V93.77H88Zm85.44-48q-5.73,7.06-11,14.57a124.35,124.35,0,0,0-9.34,15.55,94.14,94.14,0,0,0-6.52,16.59,64.06,64.06,0,0,0-2.45,17.67v7.07H117.62a72.51,72.51,0,0,1,2-16.8,91.63,91.63,0,0,1,5.4-16.06,105.67,105.67,0,0,1,8.21-15.08,134,134,0,0,1,10.38-13.82h-39.5V53.81h69.41Z"/><path class="cls-3" d="M89.37,190.11l6.74,9.35H88.22l-3.4-5.64h-.13l-3.44,5.64H73.73L80.64,190l-6.23-8.44h8l2.86,4.75h.15l2.85-4.75H95.7Z"/><path class="cls-3" d="M113.48,176.16a8.5,8.5,0,0,1,2.84,1.42,6.4,6.4,0,0,1,1.8,2.22,6.52,6.52,0,0,1,.63,2.89,6.74,6.74,0,0,1-.4,2.33,7.87,7.87,0,0,1-1.1,2,11.48,11.48,0,0,1-1.66,1.77c-.64.55-1.33,1.1-2.07,1.64s-1.52,1.07-2.32,1.61-1.61,1.09-2.41,1.67H119v5.74H99.64v-1.63a6.33,6.33,0,0,1,.92-3.34,8.68,8.68,0,0,1,1-1.41,16.18,16.18,0,0,1,1.31-1.31q2-1.77,3.66-3.06c1.11-.86,2.07-1.63,2.88-2.3a14.58,14.58,0,0,0,1.89-1.83,2.52,2.52,0,0,0,.68-1.64,2.68,2.68,0,0,0-.16-.93,2.21,2.21,0,0,0-.52-.8,2.37,2.37,0,0,0-.9-.55,3.81,3.81,0,0,0-1.34-.21,3.86,3.86,0,0,0-1.41.24,2.87,2.87,0,0,0-1,.67,3,3,0,0,0-.64,1,3.78,3.78,0,0,0-.21,1.28v.68H99.74a1.84,1.84,0,0,1,0-.39v-.35a8.22,8.22,0,0,1,.63-3.27,6.39,6.39,0,0,1,1.88-2.5,9,9,0,0,1,3.14-1.61,15.58,15.58,0,0,1,4.4-.56A12.65,12.65,0,0,1,113.48,176.16Z"/><path class="cls-3" d="M131.64,199.46h-7.21v-6.77h7.21Z"/><path class="cls-3" d="M149.36,175.65a9.39,9.39,0,0,1-.59,2.1,23.72,23.72,0,0,1-1.13,2.46q-.69,1.29-1.53,2.61c-.57.89-1.15,1.75-1.75,2.58s-1.21,1.61-1.82,2.35-1.18,1.37-1.71,1.91h6.72V184.8c.29-.41.62-.91,1-1.5s.72-1.21,1.07-1.85.65-1.26.93-1.88a10.54,10.54,0,0,0,.59-1.66H154v11.75h3.27v5H154v4.8h-6.46v-4.8H136.16V189.6c.56-.81,1.13-1.74,1.74-2.79s1.19-2.18,1.77-3.39,1.14-2.47,1.66-3.79,1-2.64,1.36-4Z"/></svg>