<svg id="Capa_1" data-name="Capa 1" xmlns="http://www.w3.org/2000/svg" xmlns:xlink="http://www.w3.org/1999/xlink" viewBox="0 0 232.31 232.38"><defs><style>.cls-1{fill:url(#Degradado_sin_nombre_3);}</style><linearGradient id="Degradado_sin_nombre_3" x1="152.5" y1="150.68" x2="-0.92" y2="5.4" gradientTransform="translate(0 232.26) rotate(-90)" gradientUnits="userSpaceOnUse"><stop offset="0" stop-color="#bd955d"/><stop offset="0.35" stop-color="#966f40"/><stop offset="0.45" stop-color="#c99b61"/><stop offset="0.54" stop-color="#f0bd7a"/><stop offset="0.59" stop-color="#ffca84"/><stop offset="0.68" stop-color="#edbb79"/><stop offset="0.86" stop-color="#c0935b"/><stop offset="1" stop-color="#966f40"/></linearGradient></defs><path class="cls-1" d="M69.62,228.89h-66a0,0,0,0,0,0,0h0v0l0,0,0,0s0,0,0,0l0,0a0,0,0,0,0,0,0s0,0,0,0,0,0,0,0V162.75a.42.42,0,0,1,.84,0v62.51l16.18-60.38a.43.43,0,0,1,.52-.3.44.44,0,0,1,.31.41.43.43,0,0,1,0,.11L5.15,225.48,36.4,171.35a.42.42,0,0,1,.58-.16.44.44,0,0,1,.21.37.42.42,0,0,1-.06.21L5.88,225.9l44.2-44.2a.42.42,0,0,1,.59,0,.39.39,0,0,1,.13.3.41.41,0,0,1-.13.3L6.47,226.5l54.14-31.26a.42.42,0,0,1,.57.16.39.39,0,0,1,.06.21A.42.42,0,0,1,61,196L6.9,227.23l60.37-16.18a.42.42,0,0,1,.52.3.37.37,0,0,1,0,.11.41.41,0,0,1-.31.4L7.11,228H69.62a.43.43,0,0,1,0,.85ZM3.49,55.68v89a.42.42,0,0,0,.42.42,83.41,83.41,0,0,1,83.32,83.32.43.43,0,0,0,.43.43h89a.43.43,0,0,0,0-.85H88.08A84.27,84.27,0,0,0,4.33,144.3V55.68a.42.42,0,0,0-.84,0ZM3.92.11A3.61,3.61,0,0,1,7.24,1.92a4.33,4.33,0,0,1,.58,2.2,4.33,4.33,0,0,1-.58,2.2A3.63,3.63,0,0,1,3.91,8.13,3.63,3.63,0,0,1,.58,6.32a4.48,4.48,0,0,1,0-4.4A3.63,3.63,0,0,1,3.92.11Zm0,.85A2.84,2.84,0,0,0,1.3,2.34,3.62,3.62,0,0,0,.85,4.12,3.56,3.56,0,0,0,1.3,5.89,2.81,2.81,0,0,0,3.9,7.28h0a2.81,2.81,0,0,0,2.6-1.39,3.65,3.65,0,0,0,0-3.54A2.81,2.81,0,0,0,3.92,1Zm0,30.26A3.61,3.61,0,0,1,7.24,33a4.46,4.46,0,0,1,0,4.4,3.62,3.62,0,0,1-3.33,1.8,3.62,3.62,0,0,1-3.33-1.8,4.48,4.48,0,0,1,0-4.4A3.63,3.63,0,0,1,3.92,31.22Zm0,.85A2.84,2.84,0,0,0,1.3,33.45a3.62,3.62,0,0,0-.45,1.78A3.58,3.58,0,0,0,1.3,37a2.83,2.83,0,0,0,2.6,1.39h0A2.83,2.83,0,0,0,6.52,37a3.67,3.67,0,0,0,0-3.55A2.82,2.82,0,0,0,3.92,32.07ZM226.06,225.13a4.46,4.46,0,0,1,4.39,0,3.62,3.62,0,0,1,1.81,3.27v.14a3.61,3.61,0,0,1-1.81,3.26,4.48,4.48,0,0,1-4.4,0,3.63,3.63,0,0,1-1.8-3.34A3.68,3.68,0,0,1,226.06,225.13Zm.42.73a2.81,2.81,0,0,0-1.39,2.6h0a2.87,2.87,0,0,0,1.39,2.6,3.67,3.67,0,0,0,3.55,0,3.14,3.14,0,0,0,0-5.21A3.67,3.67,0,0,0,226.48,225.86Zm-27.13,5.94a4.48,4.48,0,0,1-4.4,0,4,4,0,0,1,0-6.67,4.48,4.48,0,0,1,4.4,0,3.63,3.63,0,0,1,1.8,3.27v.14A3.62,3.62,0,0,1,199.35,231.8Zm-.43-.73a2.8,2.8,0,0,0,1.39-2.6,2.76,2.76,0,0,0-1.39-2.61,3.67,3.67,0,0,0-3.55,0,2.81,2.81,0,0,0-1.39,2.6h0a2.79,2.79,0,0,0,1.39,2.6A3.67,3.67,0,0,0,198.92,231.07Z"/></svg>