<svg id="Capa_1" data-name="Capa 1" xmlns="http://www.w3.org/2000/svg" xmlns:xlink="http://www.w3.org/1999/xlink" viewBox="0 0 138.89 71.44"><defs><style>.cls-1{fill:#302929;}.cls-2{fill:url(#Nueva_muestra_de_degradado_1);}.cls-3{fill:url(#Nueva_muestra_de_degradado_1-2);}.cls-4{fill:url(#Nueva_muestra_de_degradado_1-3);}.cls-5{fill:url(#Nueva_muestra_de_degradado_1-4);}</style><linearGradient id="Nueva_muestra_de_degradado_1" x1="97.2" y1="57.72" x2="143.78" y2="11.14" gradientUnits="userSpaceOnUse"><stop offset="0" stop-color="#bd955d"/><stop offset="0.28" stop-color="#966f40"/><stop offset="0.43" stop-color="#c99b61"/><stop offset="0.56" stop-color="#f0bd7a"/><stop offset="0.63" stop-color="#ffca84"/><stop offset="0.71" stop-color="#edbb79"/><stop offset="0.87" stop-color="#c0935b"/><stop offset="1" stop-color="#966f40"/></linearGradient><linearGradient id="Nueva_muestra_de_degradado_1-2" x1="11.14" y1="74.93" x2="92.14" y2="-6.08" xlink:href="#Nueva_muestra_de_degradado_1"/><linearGradient id="Nueva_muestra_de_degradado_1-3" x1="15.22" y1="70.84" x2="88.06" y2="-1.99" xlink:href="#Nueva_muestra_de_degradado_1"/><linearGradient id="Nueva_muestra_de_degradado_1-4" x1="14.48" y1="-2.73" x2="88.8" y2="71.59" xlink:href="#Nueva_muestra_de_degradado_1"/></defs><path class="cls-1" d="M133.83,2.59H109.52a5.07,5.07,0,0,1-5.06,5.06h0A5.06,5.06,0,0,1,99.4,2.59H6.24A5.06,5.06,0,0,1,1.18,7.65V66.38a5.06,5.06,0,0,1,5.06,5.06H99.4a5.06,5.06,0,0,1,5.06-5.06h0a5.07,5.07,0,0,1,5.06,5.06h24.31a5.06,5.06,0,0,1,5.06-5.06V7.65A5.06,5.06,0,0,1,133.83,2.59Z"/><path class="cls-2" d="M137.71,63.79V5.06A5.06,5.06,0,0,1,132.65,0H108.34a5.07,5.07,0,0,1-5.06,5.06V63.79a5.07,5.07,0,0,1,5.06,5.06h24.31A5.06,5.06,0,0,1,137.71,63.79Z"/><path class="cls-3" d="M103.28,63.79V5.06A5.05,5.05,0,0,1,98.22,0H5.06A5.05,5.05,0,0,1,0,5.06V63.79a5.06,5.06,0,0,1,5.06,5.06H98.22A5.06,5.06,0,0,1,103.28,63.79Z"/><path class="cls-4" d="M8.55,64.17a9.82,9.82,0,0,0-3.86-3.86V8.55A10,10,0,0,0,8.55,4.69H94.73a10,10,0,0,0,3.86,3.86V60.31a9.82,9.82,0,0,0-3.86,3.86Z"/><path class="cls-5" d="M95.29,65.1H8l-.26-.48a8.87,8.87,0,0,0-3.49-3.49l-.49-.27V8l.49-.26A8.87,8.87,0,0,0,7.73,4.24L8,3.75h87.3l.26.49A8.87,8.87,0,0,0,99,7.73l.49.26V60.86l-.49.27a8.87,8.87,0,0,0-3.49,3.49ZM9.09,63.23H94.2a10.59,10.59,0,0,1,3.46-3.46V9.09A10.79,10.79,0,0,1,94.2,5.63H9.09A11,11,0,0,1,5.63,9.09V59.77A10.79,10.79,0,0,1,9.09,63.23Z"/><path class="cls-1" d="M103.28,62.49a1.09,1.09,0,0,1-1.09-1.09V60a1.09,1.09,0,0,1,2.18,0V61.4A1.09,1.09,0,0,1,103.28,62.49Zm0-6.39A1.09,1.09,0,0,1,102.19,55V53.45a1.09,1.09,0,1,1,2.18,0V55A1.09,1.09,0,0,1,103.28,56.1Zm0-6.56a1.09,1.09,0,0,1-1.09-1.09V46.88a1.09,1.09,0,1,1,2.18,0v1.57A1.09,1.09,0,0,1,103.28,49.54Zm0-6.56a1.09,1.09,0,0,1-1.09-1.1V40.32a1.09,1.09,0,1,1,2.18,0v1.56A1.09,1.09,0,0,1,103.28,43Zm0-6.56a1.09,1.09,0,0,1-1.09-1.1V33.76a1.09,1.09,0,1,1,2.18,0v1.56A1.09,1.09,0,0,1,103.28,36.42Zm0-6.57a1.09,1.09,0,0,1-1.09-1.09V27.2a1.09,1.09,0,1,1,2.18,0v1.56A1.09,1.09,0,0,1,103.28,29.85Zm0-6.56a1.09,1.09,0,0,1-1.09-1.09V20.63a1.09,1.09,0,1,1,2.18,0V22.2A1.09,1.09,0,0,1,103.28,23.29Zm0-6.56a1.09,1.09,0,0,1-1.09-1.1V14.07a1.09,1.09,0,0,1,2.18,0v1.56A1.09,1.09,0,0,1,103.28,16.73Zm0-6.57a1.09,1.09,0,0,1-1.09-1.09V7.51a1.09,1.09,0,1,1,2.18,0V9.07A1.09,1.09,0,0,1,103.28,10.16Z"/><rect class="cls-1" x="111.72" y="10.13" width="17.89" height="4.17"/><rect class="cls-1" x="111.72" y="18.27" width="17.89" height="2.09"/><rect class="cls-1" x="111.72" y="30.18" width="17.89" height="2.09"/><rect class="cls-1" x="111.72" y="33.56" width="17.89" height="2.09"/><rect class="cls-1" x="111.72" y="56.64" width="17.89" height="2.09"/><rect class="cls-1" x="111.72" y="36.93" width="17.89" height="4.7"/><rect class="cls-1" x="111.72" y="21.64" width="17.89" height="7.25"/><rect class="cls-1" x="111.72" y="44.68" width="17.89" height="10.52"/><path class="cls-1" d="M17.21,48.33V23.78H12.93V20.44H25.08v3.34H20.8V48.33Z"/><path class="cls-1" d="M27.91,48.33V20.44H31.5V48.33Z"/><path class="cls-1" d="M47,43.36v3.77a6.85,6.85,0,0,1-4.26,1.57c-2.39,0-4.24-1.23-5.54-3.67s-2-5.94-2-10.48.65-8.09,2-10.64,3.18-3.84,5.61-3.84a7,7,0,0,1,3.86,1.45v3.63A5.28,5.28,0,0,0,43,23.42c-1.44,0-2.49.84-3.13,2.53s-1,4.5-1,8.44.33,6.69,1,8.4,1.73,2.56,3.24,2.56C44.19,45.35,45.46,44.69,47,43.36Z"/><path class="cls-1" d="M50.25,48.33V20.44h3.59V48.33Zm8.7,0L54,34.18,57.9,20.44h3.67L57.18,33.71l5.47,14.62Z"/><path class="cls-1" d="M65,48.33V20.44h9.93v3.34H68.54v8.34h5.81v3.35H68.54V45h6.69v3.34Z"/><path class="cls-1" d="M82.42,48.33V23.78H78.14V20.44H90.29v3.34H86V48.33Z"/></svg>